# Blender 3.4.1
# www.blender.org
o Cube.006
v 0.067460 0.763552 -1.120641
v 0.056090 0.815274 -0.989962
v -0.057277 0.762254 -1.054911
v -0.049795 0.797405 -1.191257
v -0.133635 0.870050 -1.104219
v 0.072621 0.774102 -1.048298
v 0.118201 0.814023 -1.104846
v 0.111518 0.844425 -1.028035
v 0.079736 0.807532 -1.177969
v 0.005986 0.742938 -1.086474
v -0.000698 0.773339 -1.009663
v 0.010384 0.763599 -1.166615
v -0.062936 0.762836 -1.127980
v 0.010815 0.827430 -1.219476
v -0.073751 0.812027 -1.003698
v -0.007115 0.843191 -0.965521
v -0.107818 0.826196 -1.156963
v -0.112216 0.805535 -1.076821
v -0.062238 0.866118 -1.213511
v -0.133597 0.870219 -1.104173
v -0.133539 0.870219 -1.104473
v -0.114972 0.870219 -1.030316
v -0.118158 0.870219 -1.035946
v -0.133159 0.870219 -1.101947
v -0.109790 0.870219 -1.159834
v -0.055763 0.870219 -1.214571
v -0.061887 0.870219 -1.212764
v -0.066972 0.870219 -1.208597
v 0.068540 0.870219 -1.209599
v 0.065720 0.870219 -1.210957
v 0.008899 0.870219 -1.222267
v -0.050671 0.870219 -0.975713
v -0.069070 0.870219 -0.983574
v -0.008326 0.870219 -0.967284
v 0.035552 0.870219 -0.972506
v 0.130741 0.870219 -1.089670
v 0.126234 0.870219 -1.066714
v 0.110363 0.870219 -1.029717
v 0.081748 0.870219 -0.997129
v 0.118581 0.870219 -1.151383
v 0.114409 0.870219 -1.159906
v 0.060792 0.870219 -0.979954
vn -0.0000 1.0000 -0.0000
vn 0.6955 -0.7164 0.0549
vn 0.9678 -0.1645 -0.1907
vn 0.3696 -0.9229 0.1082
vn 0.1889 -0.9534 -0.2354
vn 0.4031 -0.7658 -0.5012
vn 0.6221 -0.1915 0.7591
vn -0.3362 -0.7271 0.5985
vn -0.6002 -0.6429 -0.4759
vn 0.1949 -0.0551 -0.9793
vn 0.2776 -0.1951 0.9407
vn -0.6601 -0.6336 0.4035
vn -0.5982 -0.3429 -0.7243
vn -0.9673 0.1676 0.1903
vn -0.9468 0.2641 -0.1840
vn -0.6221 0.1915 -0.7591
vn -0.7492 -0.0764 -0.6579
vn -0.9170 -0.0667 -0.3934
vn -0.9504 -0.2238 0.2160
vn -0.8105 -0.3643 0.4587
vn -0.7016 -0.1818 0.6890
vn -0.1949 0.0551 0.9793
vn 0.1179 0.0699 0.9906
vn -0.2776 0.1950 -0.9407
vn -0.1179 -0.0699 -0.9906
vn -0.2537 -0.3393 -0.9058
vn -0.9190 -0.3667 -0.1450
vn -0.7529 -0.6261 -0.2027
vn -0.6287 -0.7765 0.0425
vn -0.3777 -0.2753 0.8840
vn -0.2170 -0.5356 0.8161
vn 0.0948 -0.5256 0.8455
vn 0.7492 0.0764 0.6579
vn 0.9170 0.0667 0.3934
vn 0.4058 -0.3529 -0.8431
vn 0.2686 -0.6155 -0.7410
vn -0.0427 -0.6371 -0.7696
vn -0.2569 -0.8247 -0.5039
vn -0.1239 -0.9592 -0.2541
vn -0.2854 -0.9583 0.0145
vn -0.1046 -0.9278 0.3581
vn 0.2073 -0.9033 0.3756
vn 0.3264 -0.7262 0.6050
vn 0.7190 -0.2064 -0.6637
vn 0.8423 -0.3471 -0.4123
vn 0.7162 -0.6193 -0.3218
vn 0.6523 -0.5198 0.5517
vn 0.8045 -0.5250 0.2778
vn 0.9471 -0.2616 0.1859
vt 0.744578 0.547081
vt 0.510808 0.733940
vt 0.510808 0.440122
vt 0.510808 0.146304
vt 0.998411 0.267856
vt 0.256351 0.880849
vt 0.744577 0.253260
vt 0.256351 0.587031
vt 0.256351 0.293213
vt 0.001896 0.440122
vt 0.383580 0.807395
vt 0.744578 0.400171
vt 0.998411 0.120945
vt 0.617351 0.473625
vt 0.617350 0.326715
vt 0.383580 0.072850
vt 0.871184 0.194399
vt 0.383580 0.513577
vt 0.383580 0.660486
vt 0.256351 0.733940
vt 0.383580 0.219759
vt 0.383580 0.366668
vt 0.256351 0.440122
vt 0.256351 0.146304
vt 0.129123 0.660486
vt 0.744578 0.106350
vt 0.129123 0.807395
vt 0.129123 0.366668
vt 0.129123 0.513577
vt 0.129123 0.219759
vt 0.786142 0.811436
vt 0.001588 0.440300
vt 0.001588 0.439945
vt 0.786350 0.811135
vt 0.001896 0.439480
vt 0.707407 0.857495
vt 0.012273 0.593023
vt 0.714891 0.855493
vt 0.011309 0.581597
vt 0.783873 0.812930
vt 0.001896 0.444787
vt 0.813726 0.744390
vt 0.061332 0.327529
vt 0.815163 0.652298
vt 0.129123 0.206044
vt 0.818758 0.659047
vt 0.121861 0.215566
vt 0.819463 0.666888
vt 0.116902 0.226815
vt 0.706614 0.550258
vt 0.260150 0.001588
vt 0.747755 0.123136
vt 0.710140 0.551529
vt 0.256351 0.005733
vt 0.767482 0.590589
vt 0.190460 0.108263
vt 0.606797 0.848370
vt 0.744578 0.001589
vt 0.038397 0.755014
vt 0.628952 0.857495
vt 0.021927 0.722375
vt 0.564063 0.819260
vt 0.702957 0.082320
vt 0.531708 0.777387
vt 0.666306 0.151540
vt 0.551948 0.597741
vt 0.998411 0.001588
vt 0.513985 0.413946
vt 0.536114 0.620854
vt 0.532698 0.375589
vt 0.517819 0.665459
vt 0.577629 0.303782
vt 0.513985 0.717253
vt 0.617350 0.237967
vt 0.614882 0.556349
vt 0.886403 0.056275
vt 0.625665 0.552762
vt 0.871184 0.063439
vt 0.516894 0.749571
vt 0.647284 0.197088
s 0
f 40/75/1 41/77/1 29/50/1 30/53/1 31/55/1 26/44/1 27/46/1 28/48/1 25/42/1 21/34/1 20/31/1 24/40/1 23/38/1 22/36/1 33/60/1 32/57/1 34/62/1 35/64/1 42/79/1 39/73/1 38/71/1 37/69/1 36/66/1
f 1/1/2 7/14/2 6/12/2
f 7/13/3 40/76/3 36/67/3
f 1/2/4 6/11/4 10/19/4
f 1/3/5 10/18/5 12/22/5
f 1/4/6 12/21/6 9/16/6
f 42/80/7 2/7/7 8/15/7 39/74/7
f 3/8/8 11/20/8 15/25/8
f 4/9/9 13/23/9 17/28/9
f 14/24/10 31/56/10 30/54/10
f 35/65/11 16/26/11 2/7/11 42/80/11
f 3/8/12 15/25/12 18/29/12
f 4/9/13 17/28/13 19/30/13
f 20/32/14 5/10/14 24/41/14
f 5/10/15 20/33/15 21/35/15
f 19/30/16 28/49/16 27/47/16
f 19/30/17 17/28/17 25/43/17 28/49/17
f 17/28/18 5/10/18 21/35/18 25/43/18
f 24/41/19 5/10/19 18/29/19 23/39/19
f 18/29/20 15/25/20 22/37/20 23/39/20
f 22/37/21 15/25/21 33/61/21
f 16/26/22 34/63/22 32/58/22
f 16/26/23 35/65/23 34/63/23
f 27/47/24 26/45/24 19/30/24
f 14/24/25 19/30/25 26/45/25 31/56/25
f 14/24/26 4/9/26 19/30/26
f 17/28/27 18/29/27 5/10/27
f 17/28/28 13/23/28 18/29/28
f 13/23/29 3/8/29 18/29/29
f 33/61/30 15/25/30 16/27/30 32/59/30
f 15/25/31 11/20/31 16/27/31
f 11/20/32 2/6/32 16/27/32
f 8/15/33 38/72/33 39/74/33
f 38/72/34 8/15/34 37/70/34
f 9/16/35 14/24/35 30/54/35 29/51/35
f 9/16/36 12/21/36 14/24/36
f 12/21/37 4/9/37 14/24/37
f 12/22/38 13/23/38 4/9/38
f 12/22/39 10/18/39 13/23/39
f 10/18/40 3/8/40 13/23/40
f 10/19/41 11/20/41 3/8/41
f 10/19/42 6/11/42 11/20/42
f 6/11/43 2/6/43 11/20/43
f 41/78/44 9/17/44 29/52/44
f 40/76/45 7/13/45 9/17/45 41/78/45
f 7/13/46 1/5/46 9/17/46
f 6/12/47 8/15/47 2/7/47
f 6/12/48 7/14/48 8/15/48
f 37/70/49 8/15/49 7/14/49 36/68/49
