# Blender v3.2.2 OBJ File: 'cafe.blend'
# www.blender.org
o Icosphere
v 0.070717 0.754143 -1.122149
v 0.140087 0.879559 -1.086010
v 0.058798 0.808361 -0.985161
v -0.060042 0.752782 -1.053246
v -0.052199 0.789629 -1.196173
v 0.071487 0.867982 -1.216422
v 0.052199 0.955711 -0.994771
v -0.071487 0.877358 -0.974522
v -0.140087 0.865782 -1.104934
v -0.058798 0.936979 -1.205783
v 0.060042 0.992558 -1.137698
v 0.076127 0.765202 -1.046314
v 0.123907 0.807050 -1.105591
v 0.116901 0.838919 -1.025072
v 0.124360 0.873963 -1.161003
v 0.083585 0.800245 -1.182244
v 0.006274 0.732533 -1.086332
v -0.000732 0.764402 -1.005813
v 0.010885 0.754192 -1.170343
v -0.065974 0.753391 -1.129843
v 0.011337 0.821104 -1.225755
v 0.117633 0.947188 -1.114731
v 0.077311 0.940383 -1.191384
v 0.065242 0.883680 -0.971442
v 0.113023 0.925529 -1.030720
v -0.077311 0.804957 -0.999560
v -0.007459 0.837626 -0.959540
v -0.113023 0.819811 -1.160225
v -0.117633 0.798152 -1.076213
v 0.007459 0.907714 -1.231404
v -0.065242 0.861660 -1.219502
v 0.065974 0.991949 -1.061102
v -0.011338 0.924236 -0.965189
v -0.124360 0.871377 -1.029941
v -0.116901 0.906421 -1.165872
v 0.000732 0.980938 -1.185131
v -0.010885 0.991148 -1.020602
v -0.006275 1.012807 -1.104612
v -0.083585 0.945095 -1.008700
v -0.123907 0.938290 -1.085353
v -0.076127 0.980138 -1.144630
v 0.140087 0.879559 -1.086010
v 0.060042 0.992558 -1.137698
v 0.124360 0.873963 -1.161003
v 0.124035 0.885136 -1.154690
v 0.065974 0.991949 -1.061102
v 0.167269 0.898384 -1.156042
v 0.177738 0.902747 -1.117497
v 0.157480 0.972430 -1.121254
v 0.102952 1.016979 -1.132737
v 0.103625 1.015137 -1.092588
v 0.137429 0.889902 -1.090819
v 0.069256 0.986142 -1.134842
v 0.074308 0.985623 -1.069605
v 0.160580 0.905935 -1.150465
v 0.169497 0.909651 -1.117636
v 0.152243 0.969000 -1.120836
v 0.105802 1.006941 -1.130616
v 0.106376 1.005373 -1.096422
vt 0.181819 0.000000
vt 0.227273 0.078731
vt 0.136365 0.078731
vt 0.272728 0.157461
vt 0.318182 0.078731
vt 0.363637 0.157461
vt 0.909091 0.000000
vt 0.954545 0.078731
vt 0.863636 0.078731
vt 0.727273 0.000000
vt 0.772727 0.078731
vt 0.681818 0.078731
vt 0.545455 0.000000
vt 0.590909 0.078731
vt 0.500000 0.078731
vt 0.318182 0.236191
vt 0.090910 0.157461
vt 0.181819 0.157461
vt 0.136365 0.236191
vt 0.818182 0.157461
vt 0.909091 0.157461
vt 0.863636 0.236191
vt 0.636364 0.157461
vt 0.727273 0.157461
vt 0.681818 0.236191
vt 0.454546 0.157461
vt 0.545455 0.157461
vt 0.500000 0.236191
vt 0.227273 0.236191
vt 0.045455 0.236191
vt 0.772727 0.236191
vt 0.590909 0.236191
vt 0.409092 0.236191
vt 0.181819 0.314921
vt 0.272728 0.314921
vt 0.227273 0.393651
vt 0.000000 0.314921
vt 0.090910 0.314921
vt 0.045455 0.393651
vt 0.727273 0.314921
vt 0.818182 0.314921
vt 0.772727 0.393651
vt 0.545455 0.314921
vt 0.636364 0.314921
vt 0.590909 0.393651
vt 0.363637 0.314921
vt 0.454546 0.314921
vt 0.409092 0.393651
vt 0.500000 0.393651
vt 0.681818 0.393651
vt 0.863636 0.393651
vt 0.909091 0.314921
vt 0.136365 0.393651
vt 0.318182 0.393651
vt 0.954545 0.236191
vt 1.000000 0.157461
vt 0.409092 0.078731
vt 0.363637 0.000000
vt 0.318182 0.236191
vt 0.363637 0.314921
vt 0.272728 0.314921
vt 0.272728 0.157461
vt 0.363637 0.157461
vt 0.272728 0.157461
vt 0.318182 0.236191
vt 0.363637 0.157461
vt 0.272728 0.314921
vt 0.363637 0.314921
vt 0.363637 0.314921
vt 0.272728 0.314921
vt 0.272728 0.157461
vt 0.363637 0.157461
vt 0.363637 0.314921
vt 0.272728 0.314921
vt 0.272728 0.157461
vt 0.363637 0.157461
vn 0.6955 -0.7164 0.0549
vn 0.9678 -0.1645 -0.1907
vn 0.3696 -0.9229 0.1082
vn 0.1889 -0.9534 -0.2354
vn 0.4031 -0.7658 -0.5012
vn 0.9504 0.2238 -0.2160
vn 0.6221 -0.1915 0.7591
vn -0.3362 -0.7271 0.5985
vn -0.6002 -0.6429 -0.4759
vn 0.1949 -0.0551 -0.9793
vn 0.9190 0.3667 0.1450
vn 0.2776 -0.1951 0.9407
vn -0.6601 -0.6336 0.4035
vn -0.5982 -0.3429 -0.7243
vn 0.3777 0.2753 -0.8840
vn 0.2569 0.8247 0.5039
vn -0.4058 0.3529 0.8431
vn -0.9678 0.1645 0.1907
vn -0.6523 0.5198 -0.5517
vn 0.1046 0.9278 -0.3581
vn -0.2073 0.9033 -0.3756
vn -0.3264 0.7262 -0.6050
vn -0.8045 0.5250 -0.2778
vn -0.9471 0.2616 -0.1859
vn -0.8423 0.3471 0.4123
vn -0.7190 0.2064 0.6637
vn -0.2686 0.6155 0.7410
vn 0.0427 0.6371 0.7696
vn 0.1239 0.9592 0.2541
vn 0.2854 0.9583 -0.0145
vn 0.3362 0.7271 -0.5985
vn 0.2170 0.5356 -0.8161
vn -0.0948 0.5256 -0.8455
vn -0.6221 0.1915 -0.7591
vn -0.7492 -0.0764 -0.6579
vn -0.9170 -0.0667 -0.3934
vn -0.9504 -0.2238 0.2160
vn -0.8105 -0.3643 0.4587
vn -0.7016 -0.1818 0.6890
vn -0.1949 0.0551 0.9793
vn 0.1179 0.0699 0.9906
vn 0.2537 0.3393 0.9058
vn 0.6002 0.6429 0.4759
vn 0.7529 0.6261 0.2027
vn 0.6287 0.7765 -0.0425
vn -0.2776 0.1951 -0.9407
vn -0.1179 -0.0699 -0.9906
vn -0.2537 -0.3393 -0.9058
vn -0.9190 -0.3667 -0.1450
vn -0.7529 -0.6261 -0.2027
vn -0.6287 -0.7765 0.0425
vn -0.3777 -0.2753 0.8840
vn -0.2170 -0.5356 0.8161
vn 0.0948 -0.5256 0.8455
vn 0.5982 0.3429 0.7243
vn 0.7492 0.0764 0.6579
vn 0.9170 0.0667 0.3934
vn 0.6601 0.6336 -0.4035
vn 0.8105 0.3643 -0.4587
vn 0.7016 0.1818 -0.6890
vn 0.4058 -0.3529 -0.8431
vn 0.2686 -0.6155 -0.7410
vn -0.0427 -0.6371 -0.7696
vn -0.2569 -0.8247 -0.5039
vn -0.1239 -0.9592 -0.2541
vn -0.2854 -0.9583 0.0145
vn -0.1046 -0.9278 0.3581
vn 0.2073 -0.9033 0.3756
vn 0.3264 -0.7262 0.6050
vn 0.7190 -0.2064 -0.6637
vn 0.8423 -0.3471 -0.4123
vn 0.7162 -0.6193 -0.3218
vn 0.6523 -0.5198 0.5517
vn 0.8045 -0.5250 0.2778
vn 0.9471 -0.2616 0.1859
vn 0.6293 0.7767 0.0251
vn 0.9257 0.2540 -0.2802
vn -0.9257 -0.2540 0.2802
vn -0.6293 -0.7768 -0.0251
vn 0.4969 -0.8666 -0.0463
vn -0.5030 -0.4211 0.7548
vn -0.4988 0.8658 0.0391
vn -0.5850 -0.2123 -0.7828
vn -0.4969 0.8666 0.0463
vn 0.5030 0.4211 -0.7548
vn 0.4988 -0.8658 -0.0391
vn 0.5850 0.2123 0.7828
vn 0.1741 -0.4806 0.8595
vn -0.3789 -0.4684 -0.7981
vn 0.5790 0.8144 -0.0384
vn -0.6733 0.0981 -0.7329
vn 0.7966 0.3328 0.5047
vn 0.3727 0.4282 -0.8233
vn -0.1968 0.1489 0.9691
vn 0.9655 0.1487 -0.2136
s off
f 1/1/1 13/2/1 12/3/1
f 2/4/2 13/5/2 15/6/2
f 1/7/3 12/8/3 17/9/3
f 1/10/4 17/11/4 19/12/4
f 1/13/5 19/14/5 16/15/5
f 2/4/6 15/6/6 22/16/6
f 3/17/7 14/18/7 24/19/7
f 4/20/8 18/21/8 26/22/8
f 5/23/9 20/24/9 28/25/9
f 6/26/10 21/27/10 30/28/10
f 2/4/11 22/16/11 25/29/11
f 3/17/12 24/19/12 27/30/12
f 4/20/13 26/22/13 29/31/13
f 5/23/14 28/25/14 31/32/14
f 6/26/15 30/28/15 23/33/15
f 7/34/16 32/35/16 37/36/16
f 8/37/17 33/38/17 39/39/17
f 9/40/18 34/41/18 40/42/18
f 10/43/19 35/44/19 41/45/19
f 11/46/20 36/47/20 38/48/20
f 38/48/21 36/47/21 41/49/21
f 36/47/22 10/43/22 41/49/22
f 41/45/23 35/44/23 40/50/23
f 35/44/24 9/40/24 40/50/24
f 40/42/25 34/41/25 39/51/25
f 34/41/26 8/52/26 39/51/26
f 39/39/27 33/38/27 37/53/27
f 33/38/28 7/34/28 37/53/28
f 37/36/29 32/35/29 38/54/29
f 32/35/30 11/46/30 38/54/30
f 23/33/31 36/47/31 11/46/31
f 23/33/32 30/28/32 36/47/32
f 30/28/33 10/43/33 36/47/33
f 31/32/34 35/44/34 10/43/34
f 31/32/35 28/25/35 35/44/35
f 28/25/36 9/40/36 35/44/36
f 29/31/37 34/41/37 9/40/37
f 29/31/38 26/22/38 34/41/38
f 26/22/39 8/52/39 34/41/39
f 27/30/40 33/38/40 8/37/40
f 27/30/41 24/19/41 33/38/41
f 24/19/42 7/34/42 33/38/42
f 25/29/43 32/35/43 7/34/43
f 25/29/44 22/16/44 32/35/44
f 22/16/45 11/46/45 32/35/45
f 30/28/46 31/32/46 10/43/46
f 30/28/47 21/27/47 31/32/47
f 21/27/48 5/23/48 31/32/48
f 28/25/49 29/31/49 9/40/49
f 28/25/50 20/24/50 29/31/50
f 20/24/51 4/20/51 29/31/51
f 26/22/52 27/55/52 8/52/52
f 26/22/53 18/21/53 27/55/53
f 18/21/54 3/56/54 27/55/54
f 24/19/55 25/29/55 7/34/55
f 24/19/56 14/18/56 25/29/56
f 14/18/57 2/4/57 25/29/57
f 22/16/58 23/33/58 11/46/58
f 22/16/59 15/6/59 23/33/59
f 15/6/60 6/26/60 23/33/60
f 16/15/61 21/27/61 6/26/61
f 16/15/62 19/14/62 21/27/62
f 19/14/63 5/23/63 21/27/63
f 19/12/64 20/24/64 5/23/64
f 19/12/65 17/11/65 20/24/65
f 17/11/66 4/20/66 20/24/66
f 17/9/67 18/21/67 4/20/67
f 17/9/68 12/8/68 18/21/68
f 12/8/69 3/56/69 18/21/69
f 15/6/70 16/57/70 6/26/70
f 15/6/71 13/5/71 16/57/71
f 13/5/72 1/58/72 16/57/72
f 12/3/73 14/18/73 3/17/73
f 12/3/74 13/2/74 14/18/74
f 13/2/75 2/4/75 14/18/75
f 57/59/76 58/60/76 59/61/76
f 56/62/77 55/63/77 57/59/77
f 48/64/78 49/65/78 47/66/78
f 49/65/79 51/67/79 50/68/79
f 43/69/80 50/68/80 51/67/80 46/70/80
f 49/65/81 50/68/81 47/66/81
f 42/71/82 48/64/82 47/66/82 44/72/82
f 49/65/83 48/64/83 51/67/83
f 53/73/84 54/74/84 59/61/84 58/60/84
f 57/59/85 55/63/85 58/60/85
f 52/75/86 45/76/86 55/63/86 56/62/86
f 57/59/87 59/61/87 56/62/87
f 44/72/88 47/66/88 55/63/88 45/76/88
f 48/64/89 42/71/89 52/75/89 56/62/89
f 43/69/90 46/70/90 54/74/90 53/73/90
f 46/70/91 51/67/91 59/61/91 54/74/91
f 47/66/92 50/68/92 58/60/92 55/63/92
f 51/67/93 48/64/93 56/62/93 59/61/93
f 50/68/94 43/69/94 53/73/94 58/60/94
f 42/71/95 44/72/95 45/76/95 52/75/95
