# Blender v3.2.2 OBJ File: 'cafe.blend'
# www.blender.org
o Cube.006_Cube.008
v 0.067460 0.763552 -1.120641
v 0.056090 0.815274 -0.989962
v -0.057277 0.762254 -1.054911
v -0.049795 0.797405 -1.191257
v -0.133635 0.870050 -1.104219
v 0.072621 0.774102 -1.048298
v 0.118201 0.814023 -1.104846
v 0.111518 0.844425 -1.028035
v 0.079736 0.807532 -1.177969
v 0.005986 0.742938 -1.086474
v -0.000698 0.773339 -1.009663
v 0.010384 0.763599 -1.166615
v -0.062936 0.762836 -1.127980
v 0.010815 0.827430 -1.219476
v -0.073751 0.812027 -1.003698
v -0.007115 0.843191 -0.965521
v -0.107818 0.826196 -1.156963
v -0.112216 0.805535 -1.076821
v -0.062238 0.866118 -1.213511
v -0.133597 0.870219 -1.104173
v -0.133539 0.870219 -1.104473
v -0.114972 0.870219 -1.030316
v -0.118158 0.870219 -1.035946
v -0.133159 0.870219 -1.101947
v -0.109790 0.870219 -1.159834
v -0.055763 0.870219 -1.214571
v -0.061887 0.870219 -1.212764
v -0.066972 0.870219 -1.208597
v 0.068540 0.870219 -1.209599
v 0.065720 0.870219 -1.210957
v 0.008899 0.870219 -1.222267
v -0.050671 0.870219 -0.975713
v -0.069070 0.870219 -0.983574
v -0.008326 0.870219 -0.967284
v 0.035552 0.870219 -0.972506
v 0.130741 0.870219 -1.089670
v 0.126234 0.870219 -1.066714
v 0.110363 0.870219 -1.029717
v 0.081748 0.870219 -0.997129
v 0.118581 0.870219 -1.151383
v 0.114409 0.870219 -1.159906
v 0.060792 0.870219 -0.979954
vt 0.662124 0.597508
vt 0.665215 0.591192
vt 0.699207 0.554366
vt 0.701297 0.553360
vt 0.743405 0.544978
vt 0.791324 0.550682
vt 0.795862 0.552021
vt 0.799630 0.555109
vt 0.831361 0.591245
vt 0.848961 0.632271
vt 0.849004 0.632494
vt 0.848680 0.634143
vt 0.837563 0.683055
vt 0.835202 0.687227
vt 0.801185 0.721866
vt 0.787551 0.727691
vt 0.756170 0.733938
vt 0.723654 0.730068
vt 0.704949 0.724548
vt 0.689419 0.711820
vt 0.668214 0.687671
vt 0.656452 0.660253
vt 0.653113 0.643241
vt 0.181819 0.000000
vt 0.227273 0.078731
vt 0.136365 0.078731
vt 0.318182 0.078731
vt 0.358200 0.148044
vt 0.281253 0.142695
vt 0.909091 0.000000
vt 0.954545 0.078731
vt 0.863636 0.078731
vt 0.727273 0.000000
vt 0.772727 0.078731
vt 0.681818 0.078731
vt 0.545455 0.000000
vt 0.590909 0.078731
vt 0.500000 0.078731
vt 0.125670 0.217667
vt 0.090910 0.157461
vt 0.181819 0.157461
vt 0.154360 0.205021
vt 0.818182 0.157461
vt 0.909091 0.157461
vt 0.863636 0.236191
vt 0.636364 0.157461
vt 0.727273 0.157461
vt 0.681818 0.236191
vt 0.545455 0.157461
vt 0.521914 0.198235
vt 0.458468 0.157461
vt 0.101384 0.236191
vt 0.045455 0.236191
vt 0.772727 0.236191
vt 0.590909 0.236191
vt 0.727383 0.315111
vt 0.727273 0.314921
vt 0.730160 0.314921
vt 0.727163 0.315111
vt 0.726876 0.314921
vt 0.595276 0.243754
vt 0.588315 0.240685
vt 0.657599 0.278141
vt 0.814819 0.309096
vt 0.821890 0.308499
vt 0.901934 0.302525
vt 0.060325 0.261946
vt 0.013041 0.292333
vt 0.582422 0.236191
vt 0.954545 0.236191
vt 0.922132 0.292333
vt 1.000000 0.157461
vt 0.196010 0.182041
vt 0.242307 0.157461
vt 0.455903 0.155110
vt 0.368572 0.148913
vt 0.409092 0.078731
vt 0.453189 0.155110
vt 0.363637 0.000000
vt 0.264203 0.142695
vn 0.0000 1.0000 0.0000
vn 0.6955 -0.7164 0.0549
vn 0.9678 -0.1645 -0.1907
vn 0.3696 -0.9229 0.1082
vn 0.1889 -0.9534 -0.2354
vn 0.4030 -0.7658 -0.5012
vn 0.6221 -0.1915 0.7591
vn -0.3362 -0.7271 0.5985
vn -0.6002 -0.6429 -0.4759
vn 0.1949 -0.0551 -0.9793
vn 0.2776 -0.1951 0.9407
vn -0.6601 -0.6336 0.4035
vn -0.5982 -0.3429 -0.7243
vn -0.9672 0.1680 0.1903
vn -0.9467 0.2645 -0.1838
vn -0.6221 0.1915 -0.7591
vn -0.7492 -0.0764 -0.6579
vn -0.9170 -0.0667 -0.3934
vn -0.9504 -0.2238 0.2160
vn -0.8105 -0.3643 0.4587
vn -0.7016 -0.1818 0.6890
vn -0.1949 0.0551 0.9793
vn 0.1179 0.0699 0.9906
vn -0.2776 0.1951 -0.9407
vn -0.1179 -0.0699 -0.9906
vn -0.2537 -0.3393 -0.9058
vn -0.9190 -0.3667 -0.1450
vn -0.7529 -0.6261 -0.2027
vn -0.6287 -0.7765 0.0425
vn -0.3777 -0.2753 0.8840
vn -0.2170 -0.5356 0.8161
vn 0.0948 -0.5256 0.8455
vn 0.7492 0.0764 0.6579
vn 0.9170 0.0667 0.3934
vn 0.4058 -0.3529 -0.8431
vn 0.2686 -0.6155 -0.7410
vn -0.0427 -0.6371 -0.7696
vn -0.2569 -0.8247 -0.5039
vn -0.1239 -0.9592 -0.2541
vn -0.2854 -0.9583 0.0145
vn -0.1046 -0.9278 0.3581
vn 0.2073 -0.9033 0.3756
vn 0.3264 -0.7262 0.6050
vn 0.7190 -0.2064 -0.6637
vn 0.8423 -0.3471 -0.4123
vn 0.7162 -0.6193 -0.3218
vn 0.6523 -0.5198 0.5517
vn 0.8045 -0.5250 0.2778
vn 0.9471 -0.2616 0.1859
s off
f 40/1/1 41/2/1 29/3/1 30/4/1 31/5/1 26/6/1 27/7/1 28/8/1 25/9/1 21/10/1 20/11/1 24/12/1 23/13/1 22/14/1 33/15/1 32/16/1 34/17/1 35/18/1 42/19/1 39/20/1 38/21/1 37/22/1 36/23/1
f 1/24/2 7/25/2 6/26/2
f 7/27/3 40/28/3 36/29/3
f 1/30/4 6/31/4 10/32/4
f 1/33/5 10/34/5 12/35/5
f 1/36/6 12/37/6 9/38/6
f 42/39/7 2/40/7 8/41/7 39/42/7
f 3/43/8 11/44/8 15/45/8
f 4/46/9 13/47/9 17/48/9
f 14/49/10 31/50/10 30/51/10
f 35/52/11 16/53/11 2/40/11 42/39/11
f 3/43/12 15/45/12 18/54/12
f 4/46/13 17/48/13 19/55/13
f 20/56/14 5/57/14 24/58/14
f 5/57/15 20/59/15 21/60/15
f 19/55/16 28/61/16 27/62/16
f 19/55/17 17/48/17 25/63/17 28/61/17
f 17/48/18 5/57/18 21/60/18 25/63/18
f 24/58/19 5/57/19 18/54/19 23/64/19
f 18/54/20 15/45/20 22/65/20 23/64/20
f 22/65/21 15/45/21 33/66/21
f 16/53/22 34/67/22 32/68/22
f 16/53/23 35/52/23 34/67/23
f 27/62/24 26/69/24 19/55/24
f 14/49/25 19/55/25 26/69/25 31/50/25
f 14/49/26 4/46/26 19/55/26
f 17/48/27 18/54/27 5/57/27
f 17/48/28 13/47/28 18/54/28
f 13/47/29 3/43/29 18/54/29
f 33/66/30 15/45/30 16/70/30 32/71/30
f 15/45/31 11/44/31 16/70/31
f 11/44/32 2/72/32 16/70/32
f 8/41/33 38/73/33 39/42/33
f 38/73/34 8/41/34 37/74/34
f 9/38/35 14/49/35 30/51/35 29/75/35
f 9/38/36 12/37/36 14/49/36
f 12/37/37 4/46/37 14/49/37
f 12/35/38 13/47/38 4/46/38
f 12/35/39 10/34/39 13/47/39
f 10/34/40 3/43/40 13/47/40
f 10/32/41 11/44/41 3/43/41
f 10/32/42 6/31/42 11/44/42
f 6/31/43 2/72/43 11/44/43
f 41/76/44 9/77/44 29/78/44
f 40/28/45 7/27/45 9/77/45 41/76/45
f 7/27/46 1/79/46 9/77/46
f 6/26/47 8/41/47 2/40/47
f 6/26/48 7/25/48 8/41/48
f 37/74/49 8/41/49 7/25/49 36/80/49
