# Blender 3.4.1
# www.blender.org
o Cube.005
v -2.723920 2.052077 1.226116
v 2.498383 2.052077 1.226116
v -2.723920 2.052077 0.270355
v -2.723920 2.052077 -0.685406
v -2.723920 2.052077 -1.641167
v -2.723920 2.052077 -2.596929
v -2.723920 2.052077 -3.552690
v 2.498383 2.052077 -3.552689
v 2.498383 2.052077 -2.596928
v 2.498383 2.052077 -1.641167
v 2.498383 2.052077 -0.685406
v 2.498383 2.052077 0.270355
v 1.752340 2.052077 1.226116
v 1.006296 2.052077 1.226116
v 0.260253 2.052077 1.226116
v -0.485790 2.052077 1.226116
v -1.231834 2.052077 1.226116
v -1.977877 2.052077 1.226116
v 1.752340 2.052077 -3.552689
v 1.752340 2.052077 -2.596928
v 1.752340 2.052077 -1.641167
v 1.752340 2.052077 -0.685406
v 1.752340 2.052077 0.270355
v 1.006297 2.052077 -3.552689
v 1.006297 2.052077 -2.596928
v 1.006297 2.052077 -1.641167
v 1.006297 2.052077 -0.685406
v 1.006296 2.052077 0.270355
v 0.260253 2.052077 -3.552689
v 0.260253 2.052077 -2.596928
v 0.260253 2.052077 -1.641167
v 0.260253 2.052077 -0.685406
v 0.260253 2.052077 0.270355
v -0.485790 2.052077 -3.552689
v -0.485790 2.052077 -2.596928
v -0.485790 2.052077 -1.641167
v -0.485790 2.052077 -0.685406
v -0.485790 2.052077 0.270355
v -1.231833 2.052077 -3.552689
v -1.231833 2.052077 -2.596928
v -1.231833 2.052077 -1.641167
v -1.231833 2.052077 -0.685406
v -1.231833 2.052077 0.270355
v -1.977877 2.052077 -3.552689
v -1.977877 2.052077 -2.596928
v -1.977877 2.052077 -1.641167
v -1.977877 2.052077 -0.685406
v -1.977877 2.052077 0.270355
v -2.004276 2.076577 0.294855
v -2.697521 2.076577 0.294855
v -2.697521 2.076577 1.201616
v -2.004276 2.076577 1.201616
v 2.471984 2.076577 0.294855
v 1.778739 2.076577 0.294855
v 1.778739 2.076577 1.201616
v 2.471984 2.076577 1.201616
v 1.725941 2.076577 0.294855
v 1.032696 2.076577 0.294855
v 1.032696 2.076577 1.201616
v 1.725941 2.076577 1.201616
v 0.979897 2.076577 0.294855
v 0.286652 2.076577 0.294855
v 0.286652 2.076577 1.201616
v 0.979897 2.076577 1.201616
v 0.233854 2.076577 0.294855
v -0.459391 2.076577 0.294855
v -0.459391 2.076577 1.201616
v 0.233854 2.076577 1.201616
v -0.512189 2.076577 0.294855
v -1.205434 2.076577 0.294855
v -1.205434 2.076577 1.201616
v -0.512189 2.076577 1.201616
v -1.258233 2.076577 0.294855
v -1.951478 2.076577 0.294855
v -1.951478 2.076577 1.201616
v -1.258233 2.076577 1.201616
v 2.471984 2.076577 -3.528189
v 1.778739 2.076577 -3.528189
v 1.778739 2.076577 -2.621428
v 2.471984 2.076577 -2.621428
v 2.471984 2.076577 -2.572428
v 1.778739 2.076577 -2.572428
v 1.778739 2.076577 -1.665667
v 2.471984 2.076577 -1.665667
v 2.471984 2.076577 -1.616667
v 1.778739 2.076577 -1.616667
v 1.778739 2.076577 -0.709906
v 2.471984 2.076577 -0.709906
v 2.471984 2.076577 -0.660906
v 1.778739 2.076577 -0.660906
v 1.778739 2.076577 0.245855
v 2.471984 2.076577 0.245855
v 1.725941 2.076577 -3.528189
v 1.032696 2.076577 -3.528189
v 1.032696 2.076577 -2.621428
v 1.725941 2.076577 -2.621428
v 1.725941 2.076577 -2.572428
v 1.032696 2.076577 -2.572428
v 1.032696 2.076577 -1.665667
v 1.725941 2.076577 -1.665667
v 1.725941 2.076577 -1.616667
v 1.032696 2.076577 -1.616667
v 1.032696 2.076577 -0.709906
v 1.725941 2.076577 -0.709906
v 1.725941 2.076577 -0.660906
v 1.032696 2.076577 -0.660906
v 1.032696 2.076577 0.245855
v 1.725941 2.076577 0.245855
v 0.979897 2.076577 -3.528189
v 0.286652 2.076577 -3.528189
v 0.286652 2.076577 -2.621428
v 0.979897 2.076577 -2.621428
v 0.979897 2.076577 -2.572428
v 0.286652 2.076577 -2.572428
v 0.286652 2.076577 -1.665667
v 0.979897 2.076577 -1.665667
v 0.979897 2.076577 -1.616667
v 0.286652 2.076577 -1.616667
v 0.286652 2.076577 -0.709906
v 0.979897 2.076577 -0.709906
v 0.979897 2.076577 -0.660906
v 0.286652 2.076577 -0.660906
v 0.286652 2.076577 0.245855
v 0.979897 2.076577 0.245855
v 0.233854 2.076577 -3.528189
v -0.459391 2.076577 -3.528189
v -0.459391 2.076577 -2.621428
v 0.233854 2.076577 -2.621428
v 0.233854 2.076577 -2.572428
v -0.459391 2.076577 -2.572428
v -0.459391 2.076577 -1.665667
v 0.233854 2.076577 -1.665667
v 0.233854 2.076577 -1.616667
v -0.459391 2.076577 -1.616667
v -0.459391 2.076577 -0.709906
v 0.233854 2.076577 -0.709906
v 0.233854 2.076577 -0.660906
v -0.459391 2.076577 -0.660906
v -0.459391 2.076577 0.245855
v 0.233854 2.076577 0.245855
v -0.512189 2.076577 -3.528189
v -1.205434 2.076577 -3.528189
v -1.205434 2.076577 -2.621428
v -0.512189 2.076577 -2.621428
v -0.512189 2.076577 -2.572428
v -1.205434 2.076577 -2.572428
v -1.205434 2.076577 -1.665667
v -0.512189 2.076577 -1.665667
v -0.512189 2.076577 -1.616667
v -1.205434 2.076577 -1.616667
v -1.205434 2.076577 -0.709906
v -0.512189 2.076577 -0.709906
v -0.512189 2.076577 -0.660906
v -1.205434 2.076577 -0.660906
v -1.205434 2.076577 0.245855
v -0.512189 2.076577 0.245855
v -1.258232 2.076577 -3.528189
v -1.951478 2.076577 -3.528189
v -1.951478 2.076577 -2.621428
v -1.258232 2.076577 -2.621428
v -1.258232 2.076577 -2.572428
v -1.951478 2.076577 -2.572428
v -1.951478 2.076577 -1.665667
v -1.258233 2.076577 -1.665667
v -1.258233 2.076577 -1.616667
v -1.951478 2.076577 -1.616667
v -1.951478 2.076577 -0.709906
v -1.258233 2.076577 -0.709906
v -1.258233 2.076577 -0.660906
v -1.951478 2.076577 -0.660906
v -1.951478 2.076577 0.245855
v -1.258233 2.076577 0.245855
v -2.004276 2.076577 -3.528189
v -2.697521 2.076577 -3.528190
v -2.697521 2.076577 -2.621428
v -2.004276 2.076577 -2.621428
v -2.004276 2.076577 -2.572428
v -2.697521 2.076577 -2.572428
v -2.697521 2.076577 -1.665667
v -2.004276 2.076577 -1.665667
v -2.004276 2.076577 -1.616667
v -2.697521 2.076577 -1.616667
v -2.697521 2.076577 -0.709906
v -2.004276 2.076577 -0.709906
v -2.004276 2.076577 -0.660906
v -2.697521 2.076577 -0.660906
v -2.697521 2.076577 0.245855
v -2.004276 2.076577 0.245855
vn -0.0000 -0.7071 0.7071
vn 0.6803 -0.7330 -0.0000
vn -0.0000 -0.7071 -0.7071
vn -0.6803 -0.7330 -0.0000
vt 0.640598 0.568813
vt 0.828399 0.006766
vt 0.734499 0.781023
vt 0.711023 0.294556
vt 0.556639 0.582346
vt 0.640598 0.294556
vt 0.757974 0.281023
vt 0.077192 0.794556
vt 0.734499 0.568813
vt 0.650540 0.781023
vt 0.791391 0.582346
vt 0.757974 0.006766
vt 0.664073 0.281023
vt 0.311945 0.582345
vt 0.711023 0.781023
vt 0.734499 0.294556
vt 0.711023 0.281023
vt 0.664073 0.582346
vt 0.016709 0.582346
vt 0.664073 0.006766
vt 0.298412 0.582345
vt 0.711024 0.006766
vt 0.053717 0.794556
vt 0.687548 0.281023
vt 0.452796 0.781023
vt 0.687548 0.006766
vt 0.945775 0.006766
vt 0.664073 0.568813
vt 0.593647 0.781023
vt 0.664073 0.294556
vt 0.851875 0.218976
vt 0.687548 0.568813
vt 0.218044 0.993234
vt 0.687548 0.294556
vt 0.499747 0.582345
vt 0.734499 0.281023
vt 0.053717 0.582346
vt 0.711023 0.568813
vt 0.898825 0.629865
vt 0.734499 0.006766
vt 0.781449 0.568813
vt 0.734499 0.582346
vt 0.932243 0.431187
vt 0.546697 0.006766
vt 0.804924 0.281023
vt 0.932243 0.629865
vt 0.757974 0.781023
vt 0.452796 0.294556
vt 0.476271 0.568813
vt 0.757974 0.582346
vt 0.922300 0.842075
vt 0.499747 0.294556
vt 0.617123 0.281023
vt 0.922300 0.643398
vt 0.898825 0.205444
vt 0.617123 0.294556
vt 0.556639 0.294556
vt 0.898825 0.006766
vt 0.898825 0.417654
vt 0.804924 0.294556
vt 0.828399 0.205444
vt 0.382370 0.006766
vt 0.100668 0.568813
vt 0.898825 0.218977
vt 0.053717 0.993233
vt 0.006767 0.006766
vt 0.358895 0.582346
vt 0.006766 0.568813
vt 0.006766 0.281023
vt 0.452796 0.582346
vt 0.945775 0.205444
vt 0.194568 0.006766
vt 0.687548 0.781023
vt 0.006766 0.294556
vt 0.851875 0.643397
vt 0.030242 0.568813
vt 0.194568 0.281023
vt 0.593647 0.582346
vt 0.851875 0.417654
vt 0.077192 0.006766
vt 0.218044 0.781023
vt 0.030242 0.294556
vt 0.875350 0.218977
vt 0.452796 0.281023
vt 0.077192 0.281023
vt 0.218044 0.794556
vt 0.499747 0.781023
vt 0.405846 0.006766
vt 0.875350 0.629865
vt 0.452796 0.006766
vt 0.570172 0.582346
vt 0.124143 0.568813
vt 0.053717 0.781023
vt 0.781449 0.294556
vt 0.147618 0.582346
vt 0.546697 0.281023
vt 0.405846 0.281023
vt 0.898825 0.431187
vt 0.885292 0.643398
vt 0.124143 0.294556
vt 0.358895 0.781023
vt 0.100668 0.006766
vt 0.898825 0.643398
vt 0.640598 0.281023
vt 0.100667 0.281023
vt 0.687548 0.582346
vt 0.851875 0.842075
vt 0.124143 0.006766
vt 0.147618 0.993234
vt 0.640598 0.006766
vt 0.828399 0.643397
vt 0.288469 0.568813
vt 0.124143 0.281023
vt 0.218044 0.582346
vt 0.875350 0.417654
vt 0.218044 0.006766
vt 0.124143 0.781023
vt 0.288469 0.294556
vt 0.828399 0.218977
vt 0.523222 0.568813
vt 0.218044 0.281023
vt 0.875350 0.431187
vt 0.570172 0.781023
vt 0.241519 0.006766
vt 0.945775 0.417654
vt 0.523222 0.294556
vt 0.382370 0.582346
vt 0.311945 0.568813
vt 0.147618 0.781023
vt 0.804924 0.006766
vt 0.969251 0.218977
vt 0.452796 0.568813
vt 0.241519 0.281023
vt 0.885292 0.842075
vt 0.969251 0.629865
vt 0.311945 0.294556
vt 0.898825 0.842075
vt 0.147618 0.294556
vt 0.945775 0.431187
vt 0.194569 0.568813
vt 0.147618 0.568813
vt 0.147618 0.794556
vt 0.828399 0.842075
vt 0.171093 0.294556
vt 0.100667 0.993234
vt 0.194569 0.294556
vt 0.851875 0.006766
vt 0.358895 0.568813
vt 0.171093 0.568813
vt 0.124143 0.582346
vt 0.828399 0.417654
vt 0.264994 0.006766
vt 0.429321 0.781023
vt 0.358895 0.294556
vt 0.851875 0.431187
vt 0.288469 0.281023
vt 0.264994 0.281023
vt 0.945775 0.218977
vt 0.382370 0.781023
vt 0.570172 0.006766
vt 0.945775 0.842075
vt 0.288469 0.006766
vt 0.405846 0.582346
vt 0.570172 0.568813
vt 0.969251 0.417654
vt 0.476271 0.294556
vt 0.335420 0.582346
vt 0.499747 0.568813
vt 0.570172 0.281023
vt 0.969251 0.431187
vt 0.922300 0.205444
vt 0.570172 0.294556
vt 0.945775 0.629865
vt 0.218044 0.294556
vt 0.969251 0.643397
vt 0.264994 0.568813
vt 0.218044 0.568813
vt 0.100667 0.794556
vt 0.851875 0.205444
vt 0.335420 0.294556
vt 0.171093 0.993234
vt 0.264994 0.294556
vt 0.875350 0.006766
vt 0.593647 0.281023
vt 0.335420 0.568813
vt 0.429321 0.582346
vt 0.851875 0.629865
vt 0.147618 0.006766
vt 0.194568 0.781023
vt 0.593647 0.006766
vt 0.828399 0.431187
vt 0.171093 0.281023
vt 0.147618 0.281023
vt 0.945775 0.643397
vt 0.405846 0.781023
vt 0.405846 0.294556
vt 0.006767 0.993234
vt 0.171093 0.006766
vt 0.476271 0.582346
vt 0.593647 0.568813
vt 0.335420 0.781023
vt 0.617123 0.006766
vt 0.171093 0.582346
vt 0.617123 0.568813
vt 0.405846 0.568813
vt 0.922300 0.006766
vt 0.969251 0.205444
vt 0.593647 0.294556
vt 0.969251 0.842075
vt 0.241519 0.294556
vt 0.077192 0.582346
vt 0.030242 0.281023
vt 0.241519 0.568813
vt 0.171093 0.794556
vt 0.875350 0.205444
vt 0.392313 0.568813
vt 0.124143 0.993234
vt 0.030242 0.006766
vt 0.922300 0.218977
vt 0.429321 0.281023
vt 0.392313 0.294556
vt 0.194568 0.582346
vt 0.828399 0.629865
vt 0.476271 0.006766
vt 0.523222 0.781023
vt 0.429321 0.006766
vt 0.030242 0.794556
vt 0.757974 0.568813
vt 0.476271 0.281023
vt 0.006767 0.794556
vt 0.476271 0.781023
vt 0.429321 0.294556
vt 0.241519 0.781023
vt 0.757974 0.294556
vt 0.264994 0.582346
vt 0.781449 0.281023
vt 0.171093 0.781023
vt 0.556639 0.568813
vt 0.030242 0.582346
vt 0.804924 0.568813
vt 0.429321 0.568813
vt 0.969251 0.006766
vt 0.100668 0.781023
vt 0.781449 0.006766
vt 0.077192 0.781023
vt 0.053717 0.294556
vt 0.298412 0.781023
vt 0.053717 0.281023
vt 0.053717 0.568813
vt 0.124143 0.794556
vt 0.922300 0.417654
vt 0.509689 0.281023
vt 0.664073 0.781023
vt 0.053717 0.006766
vt 0.016709 0.781023
vt 0.311945 0.281023
vt 0.509689 0.006766
vt 0.523222 0.582346
vt 0.030242 0.993234
vt 0.077192 0.294556
vt 0.311945 0.781023
vt 0.311945 0.006766
vt 0.711023 0.582346
vt 0.335420 0.281023
vt 0.077192 0.568813
vt 0.241519 0.582346
vt 0.264994 0.781023
vt 0.523222 0.006766
vt 0.650540 0.582346
vt 0.335420 0.006766
vt 0.791391 0.781023
vt 0.358895 0.281023
vt 0.556639 0.781023
vt 0.382370 0.281023
vt 0.030242 0.781023
vt 0.100668 0.294556
vt 0.523222 0.281023
vt 0.100668 0.582346
vt 0.077192 0.993233
vt 0.358895 0.006766
vt 0.546697 0.773993
vt 0.392313 0.273993
vt 0.546697 0.589376
vt 0.650540 0.301586
vt 0.650540 0.561782
vt 0.838342 0.013797
vt 0.838342 0.198414
vt 0.392313 0.013797
vt 0.063659 0.589376
vt 0.720966 0.561783
vt 0.063659 0.773993
vt 0.791391 0.301586
vt 0.791391 0.561783
vt 0.744441 0.589376
vt 0.744441 0.773993
vt 0.720966 0.301586
vt 0.157560 0.589376
vt 0.556639 0.273993
vt 0.157560 0.773993
vt 0.814867 0.013797
vt 0.814867 0.273993
vt 0.922300 0.622834
vt 0.922300 0.438217
vt 0.556639 0.013797
vt 0.979193 0.226007
vt 0.462739 0.561782
vt 0.979193 0.410624
vt 0.486214 0.301586
vt 0.486214 0.561783
vt 0.767916 0.589376
vt 0.767916 0.773993
vt 0.462739 0.301586
vt 0.345362 0.589376
vt 0.509689 0.561783
vt 0.345362 0.773993
vt 0.627065 0.013797
vt 0.627065 0.273993
vt 0.932243 0.650428
vt 0.932243 0.835045
vt 0.509689 0.301586
vt 0.181036 0.589376
vt 0.627065 0.561782
vt 0.181036 0.773993
vt 0.546697 0.561783
vt 0.546697 0.301586
vt 0.908767 0.013797
vt 0.908767 0.198414
vt 0.627065 0.301586
vt 0.040184 0.589376
vt 0.814867 0.561782
vt 0.040184 0.773993
vt 0.110610 0.301586
vt 0.110610 0.561782
vt 0.908767 0.226007
vt 0.908767 0.410624
vt 0.814867 0.301586
vt 0.063659 0.801586
vt 0.697491 0.273993
vt 0.063659 0.986203
vt 0.016709 0.013797
vt 0.016709 0.273993
vt 0.462739 0.589376
vt 0.462739 0.773993
vt 0.697491 0.013797
vt 0.955718 0.013797
vt 0.674015 0.561783
vt 0.955718 0.198414
vt 0.204511 0.013797
vt 0.204511 0.273993
vt 0.603590 0.589376
vt 0.603590 0.773993
vt 0.674015 0.301586
vt 0.861817 0.226007
vt 0.697491 0.561783
vt 0.861817 0.410624
vt 0.087135 0.013797
vt 0.087135 0.273993
vt 0.227986 0.801586
vt 0.227986 0.986203
vt 0.697491 0.301586
vt 0.509689 0.589376
vt 0.744441 0.273993
vt 0.509689 0.773993
vt 0.415788 0.013797
vt 0.415788 0.273993
vt 0.908767 0.438217
vt 0.908767 0.622834
vt 0.744441 0.013797
vt 0.368838 0.589376
vt 0.016709 0.561783
vt 0.368838 0.773993
vt 0.110610 0.013797
vt 0.110610 0.273993
vt 0.697491 0.589376
vt 0.697491 0.773993
vt 0.016709 0.301586
vt 0.861817 0.650428
vt 0.040184 0.561783
vt 0.861817 0.835045
vt 0.134085 0.013797
vt 0.134085 0.273993
vt 0.227986 0.589376
vt 0.227986 0.773993
vt 0.040184 0.301586
vt 0.885292 0.226007
vt 0.462739 0.273993
vt 0.885292 0.410624
vt 0.227986 0.013797
vt 0.227986 0.273993
vt 0.885292 0.438217
vt 0.885292 0.622834
vt 0.462739 0.013797
vt 0.580115 0.589376
vt 0.134085 0.561783
vt 0.580115 0.773993
vt 0.251462 0.013797
vt 0.251462 0.273993
vt 0.875350 0.835045
vt 0.875350 0.650428
vt 0.134085 0.301586
vt 0.908767 0.650428
vt 0.650540 0.273993
vt 0.908767 0.835045
vt 0.157560 0.301586
vt 0.157560 0.561783
vt 0.157561 0.801586
vt 0.157561 0.986203
vt 0.650540 0.013797
vt 0.838342 0.650428
vt 0.298412 0.561783
vt 0.838342 0.835045
vt 0.181036 0.301586
vt 0.181036 0.561783
vt 0.134085 0.589376
vt 0.134085 0.773993
vt 0.298412 0.301586
vt 0.838342 0.226007
vt 0.533164 0.561782
vt 0.838342 0.410624
vt 0.274937 0.013797
vt 0.274937 0.273993
vt 0.955718 0.226007
vt 0.955718 0.410624
vt 0.533164 0.301586
vt 0.392313 0.589376
vt 0.321887 0.561783
vt 0.392313 0.773993
vt 0.580115 0.013797
vt 0.580115 0.273993
vt 0.979193 0.438217
vt 0.979193 0.622834
vt 0.321887 0.301586
vt 0.955718 0.438217
vt 0.204511 0.561783
vt 0.955718 0.622834
vt 0.227986 0.301586
vt 0.227986 0.561783
vt 0.110610 0.801586
vt 0.110610 0.986203
vt 0.204511 0.301586
vt 0.861817 0.013797
vt 0.368838 0.561783
vt 0.861817 0.198414
vt 0.345362 0.301586
vt 0.345362 0.561783
vt 0.439263 0.589376
vt 0.439263 0.773993
vt 0.368838 0.301586
vt 0.861817 0.438217
vt 0.298412 0.273993
vt 0.861817 0.622834
vt 0.157560 0.013797
vt 0.157560 0.273993
vt 0.955718 0.650428
vt 0.955718 0.835045
vt 0.298412 0.013797
vt 0.415788 0.589376
vt 0.580115 0.561782
vt 0.415788 0.773993
vt 0.415788 0.301586
vt 0.415788 0.561782
vt 0.932243 0.013797
vt 0.932243 0.198414
vt 0.580115 0.301586
vt 0.979193 0.650428
vt 0.274937 0.561783
vt 0.979193 0.835045
vt 0.251461 0.301586
vt 0.251461 0.561783
vt 0.181036 0.801586
vt 0.181036 0.986203
vt 0.274937 0.301586
vt 0.885292 0.013797
vt 0.603590 0.273993
vt 0.885292 0.198414
vt 0.382370 0.561783
vt 0.382370 0.301586
vt 0.204511 0.589376
vt 0.204511 0.773993
vt 0.603590 0.013797
vt 0.838342 0.438217
vt 0.181036 0.273993
vt 0.838342 0.622834
vt 0.486214 0.013797
vt 0.486214 0.273993
vt 0.016709 0.801586
vt 0.016709 0.986203
vt 0.181036 0.013797
vt 0.486214 0.589376
vt 0.603590 0.561782
vt 0.486214 0.773993
vt 0.439263 0.301586
vt 0.439263 0.561782
vt 0.979193 0.013797
vt 0.979193 0.198414
vt 0.603590 0.301586
vt 0.087135 0.589376
vt 0.040184 0.273993
vt 0.087135 0.773993
vt 0.063659 0.301586
vt 0.063659 0.561783
vt 0.134085 0.801586
vt 0.134085 0.986203
vt 0.040184 0.013797
vt 0.932243 0.226007
vt 0.439263 0.273993
vt 0.932243 0.410624
vt 0.499747 0.273993
vt 0.499747 0.013797
vt 0.533164 0.589376
vt 0.533164 0.773993
vt 0.439263 0.013797
vt 0.040184 0.801586
vt 0.767916 0.561782
vt 0.040184 0.986203
vt 0.087135 0.301586
vt 0.087135 0.561783
vt 0.251461 0.589376
vt 0.251461 0.773993
vt 0.767916 0.301586
vt 0.274937 0.589376
vt 0.791391 0.273993
vt 0.274937 0.773993
vt 0.533164 0.013797
vt 0.533164 0.273993
vt 0.110610 0.589376
vt 0.110610 0.773993
vt 0.791391 0.013797
vt 0.288469 0.773993
vt 0.063659 0.273993
vt 0.288469 0.589376
vt 0.720966 0.013797
vt 0.720966 0.273993
vt 0.674016 0.589376
vt 0.674016 0.773993
vt 0.063659 0.013797
vt 0.006767 0.773993
vt 0.321887 0.273993
vt 0.006766 0.589376
vt 0.674015 0.013797
vt 0.674015 0.273993
vt 0.321887 0.589376
vt 0.321887 0.773993
vt 0.321887 0.013797
vt 0.720966 0.589376
vt 0.345362 0.273993
vt 0.720966 0.773993
vt 0.744441 0.301586
vt 0.744441 0.561783
vt 0.640598 0.773993
vt 0.640598 0.589376
vt 0.345362 0.013797
vt 0.781449 0.773993
vt 0.368838 0.273993
vt 0.781449 0.589376
vt 0.767916 0.013797
vt 0.767916 0.273993
vt 0.087135 0.801586
vt 0.087135 0.986203
vt 0.368838 0.013797
s 0
f 49/281/1 50/283/1 3/5/1 48/273/1
f 50/284/2 51/285/2 1/1/2 3/6/2
f 51/286/3 52/287/3 18/61/3 1/2/3
f 52/288/4 49/282/4 48/274/4 18/62/4
f 53/289/1 54/291/1 23/93/1 12/37/1
f 54/292/2 55/293/2 13/41/2 23/94/2
f 55/294/3 56/295/3 2/3/3 13/42/3
f 56/296/4 53/290/4 12/38/4 2/4/4
f 57/297/1 58/299/1 28/129/1 23/95/1
f 58/300/2 59/301/2 14/45/2 28/130/2
f 59/302/3 60/303/3 13/43/3 14/46/3
f 60/304/4 57/298/4 23/96/4 13/44/4
f 61/305/1 62/307/1 33/165/1 28/131/1
f 62/308/2 63/309/2 15/49/2 33/166/2
f 63/310/3 64/311/3 14/47/3 15/50/3
f 64/312/4 61/306/4 28/132/4 14/48/4
f 65/313/1 66/315/1 38/201/1 33/167/1
f 66/316/2 67/317/2 16/53/2 38/202/2
f 67/318/3 68/319/3 15/51/3 16/54/3
f 68/320/4 65/314/4 33/168/4 15/52/4
f 69/321/1 70/323/1 43/237/1 38/203/1
f 70/324/2 71/325/2 17/57/2 43/238/2
f 71/326/3 72/327/3 16/55/3 17/58/3
f 72/328/4 69/322/4 38/204/4 16/56/4
f 73/329/1 74/331/1 48/275/1 43/239/1
f 74/332/2 75/333/2 18/63/2 48/276/2
f 75/334/3 76/335/3 17/59/3 18/64/3
f 76/336/4 73/330/4 43/240/4 17/60/4
f 77/337/1 78/339/1 19/65/1 8/23/1
f 78/340/2 79/341/2 20/69/2 19/66/2
f 79/342/3 80/343/3 9/25/3 20/70/3
f 80/344/4 77/338/4 8/24/4 9/26/4
f 81/345/1 82/347/1 20/71/1 9/27/1
f 82/348/2 83/349/2 21/77/2 20/72/2
f 83/350/3 84/351/3 10/29/3 21/78/3
f 84/352/4 81/346/4 9/28/4 10/30/4
f 85/353/1 86/355/1 21/79/1 10/31/1
f 86/356/2 87/357/2 22/85/2 21/80/2
f 87/358/3 88/359/3 11/33/3 22/86/3
f 88/360/4 85/354/4 10/32/4 11/34/4
f 89/361/1 90/363/1 22/87/1 11/35/1
f 90/364/2 91/365/2 23/97/2 22/88/2
f 91/366/3 92/367/3 12/39/3 23/98/3
f 92/368/4 89/362/4 11/36/4 12/40/4
f 93/369/1 94/371/1 24/101/1 19/67/1
f 94/372/2 95/373/2 25/105/2 24/102/2
f 95/374/3 96/375/3 20/73/3 25/106/3
f 96/376/4 93/370/4 19/68/4 20/74/4
f 97/377/1 98/379/1 25/107/1 20/75/1
f 98/380/2 99/381/2 26/113/2 25/108/2
f 99/382/3 100/383/3 21/81/3 26/114/3
f 100/384/4 97/378/4 20/76/4 21/82/4
f 101/385/1 102/387/1 26/115/1 21/83/1
f 102/388/2 103/389/2 27/121/2 26/116/2
f 103/390/3 104/391/3 22/89/3 27/122/3
f 104/392/4 101/386/4 21/84/4 22/90/4
f 105/393/1 106/395/1 27/123/1 22/91/1
f 106/396/2 107/397/2 28/133/2 27/124/2
f 107/398/3 108/399/3 23/99/3 28/134/3
f 108/400/4 105/394/4 22/92/4 23/100/4
f 109/401/1 110/403/1 29/137/1 24/103/1
f 110/404/2 111/405/2 30/141/2 29/138/2
f 111/406/3 112/407/3 25/109/3 30/142/3
f 112/408/4 109/402/4 24/104/4 25/110/4
f 113/409/1 114/411/1 30/143/1 25/111/1
f 114/412/2 115/413/2 31/149/2 30/144/2
f 115/414/3 116/415/3 26/117/3 31/150/3
f 116/416/4 113/410/4 25/112/4 26/118/4
f 117/417/1 118/419/1 31/151/1 26/119/1
f 118/420/2 119/421/2 32/157/2 31/152/2
f 119/422/3 120/423/3 27/125/3 32/158/3
f 120/424/4 117/418/4 26/120/4 27/126/4
f 121/425/1 122/427/1 32/159/1 27/127/1
f 122/428/2 123/429/2 33/169/2 32/160/2
f 123/430/3 124/431/3 28/135/3 33/170/3
f 124/432/4 121/426/4 27/128/4 28/136/4
f 125/433/1 126/435/1 34/173/1 29/139/1
f 126/436/2 127/437/2 35/177/2 34/174/2
f 127/438/3 128/439/3 30/145/3 35/178/3
f 128/440/4 125/434/4 29/140/4 30/146/4
f 129/441/1 130/443/1 35/179/1 30/147/1
f 130/444/2 131/445/2 36/185/2 35/180/2
f 131/446/3 132/447/3 31/153/3 36/186/3
f 132/448/4 129/442/4 30/148/4 31/154/4
f 133/449/1 134/451/1 36/187/1 31/155/1
f 134/452/2 135/453/2 37/193/2 36/188/2
f 135/454/3 136/455/3 32/161/3 37/194/3
f 136/456/4 133/450/4 31/156/4 32/162/4
f 137/457/1 138/459/1 37/195/1 32/163/1
f 138/460/2 139/461/2 38/205/2 37/196/2
f 139/462/3 140/463/3 33/171/3 38/206/3
f 140/464/4 137/458/4 32/164/4 33/172/4
f 141/465/1 142/467/1 39/209/1 34/175/1
f 142/468/2 143/469/2 40/213/2 39/210/2
f 143/470/3 144/471/3 35/181/3 40/214/3
f 144/472/4 141/466/4 34/176/4 35/182/4
f 145/473/1 146/475/1 40/215/1 35/183/1
f 146/476/2 147/477/2 41/221/2 40/216/2
f 147/478/3 148/479/3 36/189/3 41/222/3
f 148/480/4 145/474/4 35/184/4 36/190/4
f 149/481/1 150/483/1 41/223/1 36/191/1
f 150/484/2 151/485/2 42/229/2 41/224/2
f 151/486/3 152/487/3 37/197/3 42/230/3
f 152/488/4 149/482/4 36/192/4 37/198/4
f 153/489/1 154/491/1 42/231/1 37/199/1
f 154/492/2 155/493/2 43/241/2 42/232/2
f 155/494/3 156/495/3 38/207/3 43/242/3
f 156/496/4 153/490/4 37/200/4 38/208/4
f 157/497/1 158/499/1 44/245/1 39/211/1
f 158/500/2 159/501/2 45/249/2 44/246/2
f 159/502/3 160/503/3 40/217/3 45/250/3
f 160/504/4 157/498/4 39/212/4 40/218/4
f 161/505/1 162/507/1 45/251/1 40/219/1
f 162/508/2 163/509/2 46/257/2 45/252/2
f 163/510/3 164/511/3 41/225/3 46/258/3
f 164/512/4 161/506/4 40/220/4 41/226/4
f 165/513/1 166/515/1 46/259/1 41/227/1
f 166/516/2 167/517/2 47/265/2 46/260/2
f 167/518/3 168/519/3 42/233/3 47/266/3
f 168/520/4 165/514/4 41/228/4 42/234/4
f 169/521/1 170/523/1 47/267/1 42/235/1
f 170/524/2 171/525/2 48/277/2 47/268/2
f 171/526/3 172/527/3 43/243/3 48/278/3
f 172/528/4 169/522/4 42/236/4 43/244/4
f 173/529/1 174/531/1 7/21/1 44/247/1
f 174/532/2 175/533/2 6/17/2 7/22/2
f 175/534/3 176/535/3 45/253/3 6/18/3
f 176/536/4 173/530/4 44/248/4 45/254/4
f 177/537/1 178/539/1 6/19/1 45/255/1
f 178/540/2 179/541/2 5/13/2 6/20/2
f 179/542/3 180/543/3 46/261/3 5/14/3
f 180/544/4 177/538/4 45/256/4 46/262/4
f 181/545/1 182/547/1 5/15/1 46/263/1
f 182/548/2 183/549/2 4/9/2 5/16/2
f 183/550/3 184/551/3 47/269/3 4/10/3
f 184/552/4 181/546/4 46/264/4 47/270/4
f 185/553/1 186/555/1 4/11/1 47/271/1
f 186/556/2 187/557/2 3/7/2 4/12/2
f 187/558/3 188/559/3 48/279/3 3/8/3
f 188/560/4 185/554/4 47/272/4 48/280/4
