# Blender 3.4.1
# www.blender.org
o Cube.007
v -2.723920 2.071263 1.226116
v -2.723920 2.071263 -3.563259
v 2.498383 2.071263 1.226116
v 2.498383 2.071263 -3.563259
v -2.723920 0.076817 1.226116
v -2.723920 2.076817 1.226116
v 2.498383 0.076817 1.226116
v 2.498383 2.076817 1.226116
v -2.723920 0.076817 -3.539618
v -2.705361 0.076817 -3.556842
v -2.721433 0.076817 -3.548230
v -2.714640 0.076817 -3.554535
v -2.705361 2.076817 -3.556842
v -2.723920 2.076817 -3.539618
v -2.714640 2.076817 -3.554535
v -2.721433 2.076817 -3.548230
v 2.479824 0.076817 -3.556842
v 2.498383 0.076817 -3.539618
v 2.489104 0.076817 -3.554535
v 2.495897 0.076817 -3.548230
v 2.498383 2.076817 -3.539618
v 2.479824 2.076817 -3.556842
v 2.495897 2.076817 -3.548230
v 2.489104 2.076817 -3.554535
vn -0.0000 -1.0000 -0.0000
vn -0.0000 -0.0000 1.0000
vn -1.0000 -0.0000 -0.0000
vn 1.0000 -0.0000 -0.0000
vn 0.2413 -0.0000 0.9704
vn 0.6803 -0.0000 0.7330
vn 0.9607 -0.0000 0.2774
vn -0.9607 -0.0000 0.2774
vn -0.6803 -0.0000 0.7330
vn -0.2413 -0.0000 0.9704
vn -0.0000 1.0000 -0.0000
vt 0.001001 0.001001
vt 0.498999 0.001001
vt 0.001001 0.498999
vt 0.498999 0.498999
vt 0.998999 0.998999
vt 0.498999 0.998999
vt 0.998999 0.751001
vt 0.748999 0.748999
vt 0.498999 0.501001
vt 0.501001 0.748999
vt 0.501001 0.998999
vt 0.766626 0.251001
vt 0.002794 0.998999
vt 0.998999 0.248999
vt 0.764624 0.251001
vt 0.001001 0.997229
vt 0.998999 0.501001
vt 0.780249 0.251001
vt 0.001898 0.998762
vt 0.751001 0.251001
vt 0.998999 0.514624
vt 0.001241 0.998114
vt 0.998999 0.001001
vt 0.764624 0.498999
vt 0.501001 0.751001
vt 0.766626 0.498999
vt 0.751001 0.498999
vt 0.751001 0.514624
vt 0.751001 0.501001
vt 0.780249 0.498999
vt 0.501001 0.248999
vt 0.998999 0.532251
vt 0.001001 0.502771
vt 0.748999 0.251001
vt 0.998999 0.530249
vt 0.002794 0.501001
vt 0.782251 0.251001
vt 0.998999 0.545874
vt 0.001241 0.501886
vt 0.998999 0.516626
vt 0.795874 0.251001
vt 0.001898 0.501238
vt 0.501001 0.251001
vt 0.751001 0.530249
vt 0.501001 0.001001
vt 0.751001 0.532251
vt 0.751001 0.516626
vt 0.795874 0.498999
vt 0.782251 0.498999
vt 0.751001 0.545874
s 0
f 2/2/1 4/4/1 3/3/1 1/1/1
f 10/14/2 17/31/2 22/45/2 13/23/2
f 18/34/3 7/8/3 8/10/3 21/43/3
f 5/5/4 9/11/4 14/25/4 6/7/4
f 13/24/5 15/27/5 12/20/5 10/15/5
f 15/28/6 16/29/6 11/17/6 12/21/6
f 16/30/7 14/26/7 9/12/7 11/18/7
f 21/44/8 23/47/8 20/40/8 18/35/8
f 23/48/9 24/49/9 19/37/9 20/41/9
f 24/50/10 22/46/10 17/32/10 19/38/10
f 9/13/11 5/6/11 7/9/11 18/36/11 20/42/11 19/39/11 17/33/11 10/16/11 12/22/11 11/19/11
