# Blender v3.2.2 OBJ File: 'cafe.blend'
# www.blender.org
o Cylinder.003_Cylinder.004
v 0.223727 1.282610 -1.256829
v 0.223727 1.286466 -1.260822
v 0.223727 1.486451 -1.256829
v 0.223727 1.482594 -1.260822
v 0.272691 1.282610 -1.243710
v 0.274687 1.286466 -1.247167
v 0.272691 1.486451 -1.243710
v 0.274687 1.482594 -1.247167
v 0.308535 1.282610 -1.207865
v 0.311992 1.286466 -1.209862
v 0.308535 1.486451 -1.207865
v 0.311992 1.482594 -1.209862
v 0.321655 1.282610 -1.158901
v 0.325647 1.286466 -1.158901
v 0.321655 1.486451 -1.158901
v 0.325647 1.482594 -1.158901
v 0.308535 1.282610 -1.109937
v 0.311992 1.286466 -1.107941
v 0.308535 1.486451 -1.109937
v 0.311992 1.482594 -1.107941
v 0.272691 1.282610 -1.074093
v 0.274687 1.286466 -1.070636
v 0.272691 1.486451 -1.074093
v 0.274687 1.482594 -1.070636
v 0.223727 1.282610 -1.060973
v 0.223727 1.286466 -1.056981
v 0.223727 1.486451 -1.060973
v 0.223727 1.482594 -1.056981
v 0.174762 1.282610 -1.074093
v 0.172766 1.286466 -1.070636
v 0.174762 1.486451 -1.074093
v 0.172766 1.482594 -1.070636
v 0.138918 1.282610 -1.109937
v 0.135461 1.286466 -1.107941
v 0.138918 1.486451 -1.109937
v 0.135461 1.482594 -1.107941
v 0.125798 1.282610 -1.158901
v 0.121806 1.286466 -1.158901
v 0.125798 1.486451 -1.158901
v 0.121806 1.482594 -1.158901
v 0.138918 1.282610 -1.207865
v 0.135461 1.286466 -1.209862
v 0.138918 1.486451 -1.207865
v 0.135461 1.482594 -1.209862
v 0.174762 1.282610 -1.243710
v 0.172766 1.286466 -1.247167
v 0.174762 1.486451 -1.243710
v 0.172766 1.482594 -1.247167
vt 0.083333 0.509459
vt 0.000000 0.509459
vt 0.000000 0.990541
vt 0.083333 0.990541
vt 0.833333 0.509459
vt 0.750000 0.509459
vt 0.750000 0.990541
vt 0.833333 0.990541
vt 0.666667 0.509459
vt 0.666667 0.990541
vt 0.583333 0.509459
vt 0.583333 0.990541
vt 0.500000 0.509459
vt 0.500000 0.990541
vt 0.416667 0.509459
vt 0.416667 0.990541
vt 0.333333 0.509459
vt 0.333333 0.990541
vt 0.250000 0.509459
vt 0.250000 0.990541
vt 0.166667 0.509459
vt 0.166667 0.990541
vt 0.916667 0.509459
vt 0.916667 0.990541
vt 0.365300 0.449705
vt 0.449705 0.365300
vt 0.480599 0.250000
vt 0.449705 0.134701
vt 0.365300 0.050295
vt 0.250000 0.019401
vt 0.134701 0.050295
vt 0.050295 0.134701
vt 0.019401 0.250000
vt 0.050295 0.365300
vt 0.134700 0.449705
vt 0.250000 0.480599
vt 1.000000 0.509459
vt 1.000000 0.990541
vt 0.998368 0.500000
vt 0.918299 0.500000
vt 0.370000 0.457846
vt 0.250000 0.490000
vt 0.915035 0.500000
vt 0.834965 0.500000
vt 0.457846 0.370000
vt 0.831701 0.500000
vt 0.751632 0.500000
vt 0.490000 0.250000
vt 0.748368 0.500000
vt 0.668299 0.500000
vt 0.457846 0.130000
vt 0.665035 0.500000
vt 0.584966 0.500000
vt 0.370000 0.042154
vt 0.581701 0.500000
vt 0.501632 0.500000
vt 0.250000 0.010000
vt 0.498368 0.500000
vt 0.418299 0.500000
vt 0.130000 0.042154
vt 0.415035 0.500000
vt 0.334966 0.500000
vt 0.042154 0.130000
vt 0.331701 0.500000
vt 0.251632 0.500000
vt 0.010000 0.250000
vt 0.248368 0.500000
vt 0.168299 0.500000
vt 0.042154 0.370000
vt 0.165035 0.500000
vt 0.084966 0.500000
vt 0.130000 0.457846
vt 0.081701 0.500000
vt 0.001632 0.500000
vt 0.750000 0.480599
vt 0.634701 0.449705
vt 0.550295 0.365300
vt 0.519401 0.250000
vt 0.550295 0.134701
vt 0.634700 0.050295
vt 0.750000 0.019401
vt 0.865300 0.050295
vt 0.949705 0.134700
vt 0.980599 0.250000
vt 0.949705 0.365300
vt 0.865300 0.449705
vn 0.2588 0.0000 0.9659
vn -0.9659 0.0000 0.2588
vn -0.9659 0.0000 -0.2588
vn -0.7071 0.0000 -0.7071
vn -0.2588 0.0000 -0.9659
vn 0.2588 0.0000 -0.9659
vn 0.7071 0.0000 -0.7071
vn 0.9659 0.0000 -0.2588
vn 0.9659 0.0000 0.2588
vn 0.7071 0.0000 0.7071
vn -0.7071 0.0000 0.7071
vn 0.0000 -1.0000 -0.0000
vn -0.2588 0.0000 0.9659
vn -0.1830 0.7071 0.6830
vn -0.1830 -0.7071 0.6830
vn -0.5000 0.7071 0.5000
vn -0.5000 -0.7071 0.5000
vn -0.6830 0.7071 0.1830
vn -0.6830 -0.7071 0.1830
vn -0.6830 0.7071 -0.1830
vn -0.6830 -0.7071 -0.1830
vn -0.5000 0.7071 -0.5000
vn -0.5000 -0.7071 -0.5000
vn -0.1830 0.7071 -0.6830
vn -0.1830 -0.7071 -0.6830
vn 0.1830 0.7071 -0.6830
vn 0.1830 -0.7071 -0.6830
vn 0.5000 0.7071 -0.5000
vn 0.5000 -0.7071 -0.5000
vn 0.6830 0.7071 -0.1830
vn 0.6830 -0.7071 -0.1830
vn 0.6830 0.7071 0.1830
vn 0.6830 -0.7071 0.1830
vn 0.5000 0.7071 0.5000
vn 0.5000 -0.7071 0.5000
vn 0.1830 0.7071 0.6830
vn 0.1830 -0.7071 0.6830
vn 0.0000 1.0000 0.0000
s off
f 46/1/1 2/2/1 4/3/1 48/4/1
f 10/5/2 14/6/2 16/7/2 12/8/2
f 14/6/3 18/9/3 20/10/3 16/7/3
f 18/9/4 22/11/4 24/12/4 20/10/4
f 22/11/5 26/13/5 28/14/5 24/12/5
f 26/13/6 30/15/6 32/16/6 28/14/6
f 30/15/7 34/17/7 36/18/7 32/16/7
f 34/17/8 38/19/8 40/20/8 36/18/8
f 38/19/9 42/21/9 44/22/9 40/20/9
f 42/21/10 46/1/10 48/4/10 44/22/10
f 6/23/11 10/5/11 12/8/11 8/24/11
f 7/25/12 11/26/12 15/27/12 19/28/12 23/29/12 27/30/12 31/31/12 35/32/12 39/33/12 43/34/12 47/35/12 3/36/12
f 2/37/13 6/23/13 8/24/13 4/38/13
f 2/37/14 1/39/14 5/40/14 6/23/14
f 8/41/15 7/25/15 3/36/15 4/42/15
f 6/23/16 5/43/16 9/44/16 10/5/16
f 12/45/17 11/26/17 7/25/17 8/41/17
f 10/5/18 9/46/18 13/47/18 14/6/18
f 16/48/19 15/27/19 11/26/19 12/45/19
f 14/6/20 13/49/20 17/50/20 18/9/20
f 20/51/21 19/28/21 15/27/21 16/48/21
f 18/9/22 17/52/22 21/53/22 22/11/22
f 24/54/23 23/29/23 19/28/23 20/51/23
f 22/11/24 21/55/24 25/56/24 26/13/24
f 28/57/25 27/30/25 23/29/25 24/54/25
f 26/13/26 25/58/26 29/59/26 30/15/26
f 32/60/27 31/31/27 27/30/27 28/57/27
f 30/15/28 29/61/28 33/62/28 34/17/28
f 36/63/29 35/32/29 31/31/29 32/60/29
f 34/17/30 33/64/30 37/65/30 38/19/30
f 40/66/31 39/33/31 35/32/31 36/63/31
f 38/19/32 37/67/32 41/68/32 42/21/32
f 44/69/33 43/34/33 39/33/33 40/66/33
f 42/21/34 41/70/34 45/71/34 46/1/34
f 48/72/35 47/35/35 43/34/35 44/69/35
f 46/1/36 45/73/36 1/74/36 2/2/36
f 4/42/37 3/36/37 47/35/37 48/72/37
f 1/75/38 45/76/38 41/77/38 37/78/38 33/79/38 29/80/38 25/81/38 21/82/38 17/83/38 13/84/38 9/85/38 5/86/38
