# Blender v3.2.2 OBJ File: 'sitebackground.blend'
# www.blender.org
o Cube.015_Cube.020
v 1.122925 0.094957 -0.005567
v 1.122925 0.871915 -0.005567
v 0.084925 0.871915 -0.005567
v 0.084925 0.094957 -0.005567
v 1.122925 -0.894000 -0.005567
v 1.122925 -0.117043 -0.005567
v 0.084925 -0.117043 -0.005567
v 0.084925 -0.894000 -0.005567
vt 0.000000 0.000000
vt 0.000000 0.000000
vt 0.000000 0.000000
vt 0.000000 0.000000
vt 0.000000 0.000000
vt 0.000000 0.000000
vt 0.000000 0.000000
vt 0.000000 0.000000
vn 0.0000 0.0000 1.0000
s off
f 4/1/1 1/2/1 2/3/1 3/4/1
f 8/5/1 5/6/1 6/7/1 7/8/1
