# Blender v3.2.2 OBJ File: 'sitebackground.blend'
# www.blender.org
o Cube.002_Cube.003
v -0.021075 -1.000000 -0.111567
v -0.021075 -1.000000 0.100433
v 1.228925 -1.000000 -0.111567
v 1.228925 -1.000000 0.100433
v 1.228925 0.977915 -0.111567
v 1.228925 0.977915 0.100433
v -0.021075 0.977915 -0.111567
v -0.021075 0.977915 0.100433
v 1.228925 -0.011043 -0.111567
v 1.228925 -0.011043 0.100433
v -0.021075 -0.011043 -0.111567
v -0.021075 -0.011043 0.100433
v 1.122925 0.094957 -0.005567
v 1.122925 0.871915 -0.005567
v 0.084925 0.871915 -0.005567
v 0.084925 0.094957 -0.005567
v 1.122925 -0.894000 -0.005567
v 1.122925 -0.117043 -0.005567
v 0.084925 -0.117043 -0.005567
v 0.084925 -0.894000 -0.005567
vt 0.481527 0.875000
vt 0.588053 0.875000
vt 0.588053 0.875000
vt 0.481527 0.875000
vt 0.481527 0.875000
vt 0.588053 0.875000
vt 0.588053 0.937500
vt 0.588053 0.937500
vt 0.588053 0.937500
vt 0.481527 0.937500
vt 0.481527 0.937500
vt 0.481527 0.937500
vt 0.375000 0.875000
vt 0.481527 0.875000
vt 0.375000 0.875000
vt 0.375000 0.875000
vt 0.481527 0.937500
vt 0.375000 0.937500
vt 0.375000 0.937500
vt 0.375000 0.937500
vn -0.7071 0.0000 -0.7071
vn -0.7071 0.0000 0.7071
vn 0.0000 -0.7071 -0.7071
vn 0.0000 -0.7071 0.7071
vn 0.7071 0.0000 -0.7071
vn 0.7071 0.0000 0.7071
vn 0.0000 0.7071 -0.7071
vn 0.0000 0.7071 0.7071
vn -1.0000 0.0000 0.0000
s off
f 13/1/1 14/2/1 5/3/1 9/4/1
f 14/2/2 13/1/2 10/5/2 6/6/2
f 14/2/3 15/7/3 7/8/3 5/3/3
f 15/7/4 14/2/4 6/6/4 8/9/4
f 15/7/5 16/10/5 11/11/5 7/8/5
f 16/10/6 15/7/6 8/9/6 12/12/6
f 16/10/7 13/1/7 9/4/7 11/11/7
f 13/1/8 16/10/8 12/12/8 10/5/8
f 17/13/1 18/14/1 9/4/1 3/15/1
f 18/14/2 17/13/2 4/16/2 10/5/2
f 18/14/3 19/17/3 11/11/3 9/4/3
f 19/17/4 18/14/4 10/5/4 12/12/4
f 19/17/5 20/18/5 1/19/5 11/11/5
f 20/18/6 19/17/6 12/12/6 2/20/6
f 20/18/7 17/13/7 3/15/7 1/19/7
f 17/13/8 20/18/8 2/20/8 4/16/8
f 11/11/9 1/19/9 2/20/9 12/12/9 8/9/9 7/8/9
