# Blender v3.2.2 OBJ File: 'cafe.blend'
# www.blender.org
o Cube.001
v 0.662407 0.711742 0.423464
v 0.662407 0.711742 0.090037
v 1.251884 0.711742 0.423464
v 1.251884 0.711742 0.090037
v 0.693976 0.992098 0.391895
v 0.699952 1.045169 0.332512
v 0.699952 1.045169 0.180989
v 0.693976 0.992098 0.121607
v 1.214338 1.045169 0.332512
v 1.220314 0.992098 0.391895
v 1.220314 0.992098 0.121607
v 1.214338 1.045169 0.180989
vt 0.625000 0.551683
vt 0.875000 0.551683
vt 0.875000 0.698317
vt 0.625000 0.698317
vt 0.375000 0.500000
vt 0.585208 0.500000
vt 0.585208 0.750000
vt 0.375000 0.750000
vt 0.375000 0.000000
vt 0.585208 0.000000
vt 0.625000 0.051683
vt 0.625000 0.198317
vt 0.585208 0.250000
vt 0.375000 0.250000
vt 0.125000 0.500000
vt 0.125000 0.750000
vt 0.625000 0.250000
vt 0.625000 0.500000
vt 0.625000 0.750000
vt 0.625000 1.000000
vt 0.585208 1.000000
vt 0.375000 1.000000
vn 0.0000 1.0000 0.0000
vn 0.9937 0.1119 0.0000
vn -0.9937 0.1119 0.0000
vn 0.0000 -1.0000 0.0000
vn 0.0000 0.1119 -0.9937
vn 0.0000 0.7456 -0.6664
vn 0.0000 0.7456 0.6664
vn 0.0000 0.1119 0.9937
s off
f 12/1/1 7/2/1 6/3/1 9/4/1
f 4/5/2 11/6/2 12/1/2 9/4/2 10/7/2 3/8/2
f 1/9/3 5/10/3 6/11/3 7/12/3 8/13/3 2/14/3
f 2/15/4 4/5/4 3/8/4 1/16/4
f 2/14/5 8/13/5 11/6/5 4/5/5
f 7/17/6 12/18/6 11/6/6 8/13/6
f 9/19/7 6/20/7 5/21/7 10/7/7
f 3/8/8 10/7/8 5/21/8 1/22/8
