# Blender v3.2.2 OBJ File: 'cafe.blend'
# www.blender.org
o Plane_Plane.004
v -1.852130 1.115601 -1.367595
v -1.168010 1.115601 -1.367595
v -1.852130 1.799721 -1.367595
v -1.168010 1.799721 -1.367595
v -1.824199 1.771790 -1.367595
v -1.824199 1.143532 -1.367595
v -1.195941 1.143532 -1.367595
v -1.195941 1.771790 -1.367595
v -1.824199 1.771790 -1.353025
v -1.824199 1.143532 -1.353025
v -1.195941 1.143532 -1.353025
v -1.195941 1.771790 -1.353025
v -1.852130 1.799721 -1.353025
v -1.852130 1.115601 -1.353025
v -1.168010 1.115601 -1.353025
v -1.168010 1.799721 -1.353025
v -1.567466 0.548841 -1.367595
v -1.042246 0.548841 -1.367595
v -1.567466 1.074061 -1.367595
v -1.042246 1.074061 -1.367595
v -1.546023 1.052618 -1.367595
v -1.546023 0.570284 -1.367595
v -1.063689 0.570284 -1.367595
v -1.063689 1.052618 -1.367595
v -1.546023 1.052618 -1.356409
v -1.546023 0.570284 -1.356409
v -1.063689 0.570284 -1.356409
v -1.063689 1.052618 -1.356409
v -1.567466 1.074061 -1.356409
v -1.567466 0.548841 -1.356409
v -1.042246 0.548841 -1.356409
v -1.042246 1.074061 -1.356409
v -1.117335 1.111365 -1.367595
v -0.765079 1.111365 -1.367595
v -1.117335 1.463620 -1.367595
v -0.765079 1.463620 -1.367595
v -1.102953 1.449239 -1.367595
v -1.102953 1.125746 -1.367595
v -0.779461 1.125746 -1.367595
v -0.779461 1.449239 -1.367595
v -1.102953 1.449239 -1.360093
v -1.102953 1.125746 -1.360093
v -0.779461 1.125746 -1.360093
v -0.779461 1.449239 -1.360093
v -1.117335 1.463620 -1.360093
v -1.117335 1.111365 -1.360093
v -0.765079 1.111365 -1.360093
v -0.765079 1.463620 -1.360093
vt 0.110110 0.221221
vt 0.110110 0.001001
vt 0.001001 0.001001
vt 0.001001 0.221221
vt 0.001001 0.332332
vt 0.221221 0.332332
vt 0.221221 0.223223
vt 0.001001 0.223223
vt 0.221221 0.221221
vt 0.221221 0.001001
vt 0.112112 0.001001
vt 0.112112 0.221221
vt 0.001001 0.443443
vt 0.221221 0.443443
vt 0.221221 0.334334
vt 0.001001 0.334334
vt 0.332332 0.221221
vt 0.332332 0.001001
vt 0.223223 0.001001
vt 0.223223 0.221221
vt 0.223223 0.332332
vt 0.443443 0.332332
vt 0.443443 0.223223
vt 0.223223 0.223223
vt 0.443443 0.221221
vt 0.443443 0.001001
vt 0.334334 0.001001
vt 0.334334 0.221221
vt 0.223223 0.443443
vt 0.443443 0.443443
vt 0.443443 0.334334
vt 0.223223 0.334334
vt 0.554555 0.221221
vt 0.554555 0.001001
vt 0.445445 0.001001
vt 0.445445 0.221221
vt 0.001001 0.554555
vt 0.221221 0.554555
vt 0.221221 0.445445
vt 0.001001 0.445445
vt 0.554555 0.443443
vt 0.554555 0.223223
vt 0.445445 0.223223
vt 0.445445 0.443443
vt 0.223223 0.554555
vt 0.443443 0.554555
vt 0.443443 0.445445
vt 0.223223 0.445445
vt 0.665666 0.221221
vt 0.665666 0.001001
vt 0.556557 0.001001
vt 0.556557 0.221221
vt 0.001001 0.665666
vt 0.221221 0.665666
vt 0.221221 0.556557
vt 0.001001 0.556557
vt 0.665666 0.443443
vt 0.665666 0.223223
vt 0.556557 0.223223
vt 0.556557 0.443443
vt 0.223223 0.665666
vt 0.443443 0.665666
vt 0.443443 0.556557
vt 0.223223 0.556557
vt 0.554555 0.665666
vt 0.554555 0.445445
vt 0.445445 0.445445
vt 0.445445 0.665666
vt 0.001001 0.776777
vt 0.221221 0.776777
vt 0.221221 0.667668
vt 0.001001 0.667668
vt 0.665666 0.665666
vt 0.665666 0.445445
vt 0.556557 0.445445
vt 0.556557 0.665666
vt 0.223223 0.776777
vt 0.443443 0.776777
vt 0.443443 0.667668
vt 0.223223 0.667668
vt 0.776777 0.221221
vt 0.776777 0.001001
vt 0.667668 0.001001
vt 0.667668 0.221221
vt 0.445445 0.776777
vt 0.665666 0.776777
vt 0.665666 0.667668
vt 0.445445 0.667668
vt 0.776777 0.443443
vt 0.776777 0.223223
vt 0.667668 0.223223
vt 0.667668 0.443443
vt 0.001001 0.887888
vt 0.221221 0.887888
vt 0.221221 0.778779
vt 0.001001 0.778779
vt 0.776777 0.665666
vt 0.776777 0.445445
vt 0.667668 0.445445
vt 0.667668 0.665666
vt 0.223223 0.887888
vt 0.443443 0.887888
vt 0.443443 0.778779
vt 0.223223 0.778779
vt 0.887888 0.221221
vt 0.887888 0.001001
vt 0.778779 0.001001
vt 0.778779 0.221221
vt 0.445445 0.887888
vt 0.665666 0.887888
vt 0.665666 0.778779
vt 0.445445 0.778779
vt 0.887888 0.443443
vt 0.887888 0.223223
vt 0.778779 0.223223
vt 0.778779 0.443443
vt 0.667668 0.776777
vt 0.887888 0.776777
vt 0.887888 0.667668
vt 0.667668 0.667668
vt 0.887888 0.665666
vt 0.887888 0.445445
vt 0.778779 0.445445
vt 0.778779 0.665666
vt 0.667668 0.887888
vt 0.887888 0.887888
vt 0.887888 0.778779
vt 0.667668 0.778779
vt 0.998999 0.221221
vt 0.998999 0.001001
vt 0.889890 0.001001
vt 0.889890 0.221221
vt 0.001001 0.998999
vt 0.221221 0.998999
vt 0.221221 0.889890
vt 0.001001 0.889890
vt 0.998999 0.443443
vt 0.998999 0.223223
vt 0.889890 0.223223
vt 0.889890 0.443443
vt 0.223223 0.998999
vt 0.443443 0.998999
vt 0.443443 0.889890
vt 0.223223 0.889890
vn 1.0000 0.0000 0.0000
vn -1.0000 0.0000 0.0000
vn 0.0000 0.0000 1.0000
vn 0.0000 1.0000 0.0000
vn 0.0000 -1.0000 0.0000
s off
f 6/1/1 5/2/1 9/3/1 10/4/1
f 8/5/2 7/6/2 11/7/2 12/8/2
f 3/9/2 1/10/2 14/11/2 13/12/2
f 2/13/1 4/14/1 16/15/1 15/16/1
f 10/17/3 9/18/3 13/19/3 14/20/3
f 11/21/3 10/22/3 14/23/3 15/24/3
f 12/25/3 11/26/3 15/27/3 16/28/3
f 9/29/3 12/30/3 16/31/3 13/32/3
f 4/33/4 3/34/4 13/35/4 16/36/4
f 1/37/5 2/38/5 15/39/5 14/40/5
f 5/41/5 8/42/5 12/43/5 9/44/5
f 7/45/4 6/46/4 10/47/4 11/48/4
f 22/49/1 21/50/1 25/51/1 26/52/1
f 24/53/2 23/54/2 27/55/2 28/56/2
f 19/57/2 17/58/2 30/59/2 29/60/2
f 18/61/1 20/62/1 32/63/1 31/64/1
f 26/65/3 25/66/3 29/67/3 30/68/3
f 27/69/3 26/70/3 30/71/3 31/72/3
f 28/73/3 27/74/3 31/75/3 32/76/3
f 25/77/3 28/78/3 32/79/3 29/80/3
f 20/81/4 19/82/4 29/83/4 32/84/4
f 17/85/5 18/86/5 31/87/5 30/88/5
f 21/89/5 24/90/5 28/91/5 25/92/5
f 23/93/4 22/94/4 26/95/4 27/96/4
f 38/97/1 37/98/1 41/99/1 42/100/1
f 40/101/2 39/102/2 43/103/2 44/104/2
f 35/105/2 33/106/2 46/107/2 45/108/2
f 34/109/1 36/110/1 48/111/1 47/112/1
f 42/113/3 41/114/3 45/115/3 46/116/3
f 43/117/3 42/118/3 46/119/3 47/120/3
f 44/121/3 43/122/3 47/123/3 48/124/3
f 41/125/3 44/126/3 48/127/3 45/128/3
f 36/129/4 35/130/4 45/131/4 48/132/4
f 33/133/5 34/134/5 47/135/5 46/136/5
f 37/137/5 40/138/5 44/139/5 41/140/5
f 39/141/4 38/142/4 42/143/4 43/144/4
