# Blender v3.2.2 OBJ File: 'cafe.blend'
# www.blender.org
o Cube.005_Cube.007
v -0.269834 0.697102 -1.447315
v 0.269834 0.697102 -1.447315
v 0.232269 0.570434 -1.438306
v 0.968655 0.570434 -1.438306
v -0.269834 0.697102 -0.989813
v -0.187668 0.697102 -0.907647
v -0.267774 0.697102 -0.971529
v -0.261697 0.697102 -0.954162
v -0.251908 0.697102 -0.938583
v -0.238898 0.697102 -0.925573
v -0.223318 0.697102 -0.915784
v -0.205951 0.697102 -0.909707
v 0.187668 0.697102 -0.907647
v 0.269834 0.697102 -0.989813
v 0.205951 0.697102 -0.909707
v 0.223318 0.697102 -0.915784
v 0.238898 0.697102 -0.925573
v 0.251908 0.697102 -0.938583
v 0.261697 0.697102 -0.954162
v 0.267774 0.697102 -0.971529
v 0.232269 0.570434 -0.988348
v 0.151457 0.570434 -0.907537
v 0.232269 0.570250 -0.907537
v 0.313080 0.570434 -0.907537
v 0.230243 0.570434 -0.970366
v 0.224266 0.570434 -0.953285
v 0.214638 0.570434 -0.937963
v 0.201842 0.570434 -0.925167
v 0.186520 0.570434 -0.915540
v 0.169439 0.570434 -0.909563
v 0.887843 0.570434 -0.907537
v 0.968655 0.570434 -0.988348
v 0.905825 0.570434 -0.909563
v 0.922906 0.570434 -0.915540
v 0.938228 0.570434 -0.925167
v 0.951024 0.570434 -0.937963
v 0.960652 0.570434 -0.953285
v 0.966629 0.570434 -0.970366
v -0.269834 0.718423 -1.447315
v 0.269834 0.718423 -1.447315
v 0.232269 0.591403 -1.438306
v 0.968655 0.591403 -1.438306
v 0.313080 0.591403 -0.907537
v 0.232269 0.591403 -0.988348
v 0.230243 0.591403 -0.970366
v 0.224266 0.591403 -0.953285
v 0.214638 0.591403 -0.937963
v 0.201842 0.591403 -0.925167
v 0.186520 0.591403 -0.915540
v 0.169439 0.591403 -0.909563
v 0.151457 0.591403 -0.907537
v 0.232269 0.591219 -0.907537
v -0.187668 0.718423 -0.907647
v -0.205951 0.718423 -0.909707
v -0.223318 0.718423 -0.915784
v -0.238898 0.718423 -0.925573
v -0.251908 0.718423 -0.938583
v -0.261697 0.718423 -0.954162
v -0.267774 0.718423 -0.971529
v -0.269834 0.718423 -0.989813
v 0.205951 0.718423 -0.909707
v 0.187668 0.718423 -0.907647
v 0.223318 0.718423 -0.915784
v 0.238898 0.718423 -0.925573
v 0.251908 0.718423 -0.938583
v 0.261697 0.718423 -0.954162
v 0.267774 0.718423 -0.971529
v 0.269834 0.718423 -0.989813
v 0.905825 0.591403 -0.909563
v 0.887843 0.591403 -0.907537
v 0.922906 0.591403 -0.915540
v 0.938228 0.591403 -0.925167
v 0.951024 0.591403 -0.937963
v 0.960652 0.591403 -0.953285
v 0.966629 0.591403 -0.970366
v 0.968655 0.591403 -0.988348
v -0.962054 0.681246 0.059541
v 1.587267 0.681246 0.459670
v 1.568689 0.682289 0.044455
v -0.654832 0.681246 0.459670
v -0.962054 0.681246 -1.687102
v -0.637246 0.682289 -1.589799
v -0.962054 0.681246 0.136422
v -0.695399 0.681246 0.459670
v -0.960593 0.681246 0.170211
v -0.956227 0.681246 0.203629
v -0.949003 0.681246 0.236311
v -0.939000 0.681246 0.267899
v -0.926329 0.681246 0.298046
v -0.911127 0.681246 0.326423
v -0.893562 0.681246 0.352717
v -0.873826 0.681246 0.376642
v -0.852135 0.681246 0.397935
v -0.828726 0.681246 0.416363
v -0.803857 0.681246 0.431724
v -0.777800 0.681246 0.443849
v -0.750840 0.681246 0.452606
v -0.723272 0.681246 0.457899
v -0.392623 0.682289 0.044455
v -0.637246 0.682289 -0.252086
v -0.418193 0.682289 0.042831
v -0.443483 0.682289 0.037975
v -0.468216 0.682289 0.029942
v -0.492120 0.682289 0.018818
v -0.514935 0.682289 0.004726
v -0.536409 0.682289 -0.012179
v -0.556308 0.682289 -0.031713
v -0.574413 0.682289 -0.053661
v -0.590527 0.682289 -0.077783
v -0.604473 0.682289 -0.103815
v -0.616097 0.682289 -0.131472
v -0.625274 0.682289 -0.160449
v -0.631901 0.682289 -0.190431
v -0.635906 0.682289 -0.221089
v 1.568689 0.705468 0.044455
v 1.587267 0.706512 0.459670
v -0.654832 0.706512 0.459670
v -0.962054 0.706512 -1.687102
v -0.637246 0.705468 -1.589799
v -0.962054 0.706512 0.059541
v -0.648736 0.706512 0.354430
v -0.392623 0.705468 0.044455
v -0.418193 0.705468 0.042831
v -0.443483 0.705468 0.037975
v -0.468216 0.705468 0.029942
v -0.492120 0.705468 0.018818
v -0.514935 0.705468 0.004726
v -0.536409 0.705468 -0.012179
v -0.556308 0.705468 -0.031713
v -0.574413 0.705468 -0.053661
v -0.590527 0.705468 -0.077783
v -0.604473 0.705468 -0.103815
v -0.616097 0.705468 -0.131472
v -0.625274 0.705468 -0.160449
v -0.631901 0.705468 -0.190431
v -0.635906 0.705468 -0.221089
v -0.637246 0.705468 -0.252086
v -0.890734 0.706512 0.061072
v -0.695399 0.706512 0.459670
v -0.723272 0.706512 0.457899
v -0.750840 0.706512 0.452606
v -0.777800 0.706512 0.443849
v -0.803857 0.706512 0.431724
v -0.828726 0.706512 0.416363
v -0.852135 0.706512 0.397935
v -0.873826 0.706512 0.376642
v -0.893562 0.706512 0.352717
v -0.911127 0.706512 0.326423
v -0.926329 0.706512 0.298046
v -0.939000 0.706512 0.267899
v -0.949003 0.706512 0.236311
v -0.956227 0.706512 0.203629
v -0.960593 0.706512 0.170211
v -0.962054 0.706512 0.136422
vt 0.411295 0.522639
vt 0.411295 0.236296
vt 0.412561 0.224853
vt 0.416296 0.213983
vt 0.422313 0.204232
vt 0.430310 0.196089
vt 0.439886 0.189962
vt 0.450561 0.186159
vt 0.461799 0.184870
vt 0.692502 0.184870
vt 0.703741 0.186159
vt 0.714416 0.189962
vt 0.723991 0.196089
vt 0.731988 0.204232
vt 0.738005 0.213983
vt 0.741741 0.224853
vt 0.743007 0.236296
vt 0.743007 0.522639
vt 0.053434 0.550755
vt 0.366684 0.550755
vt 0.366684 0.745657
vt 0.365822 0.753446
vt 0.363280 0.760845
vt 0.359184 0.767482
vt 0.353741 0.773025
vt 0.347223 0.777195
vt 0.339957 0.779784
vt 0.332308 0.780661
vt 0.087810 0.780661
vt 0.053434 0.745657
vt 0.053434 0.780661
vt 0.019057 0.780661
vt 0.026707 0.779784
vt 0.033973 0.777195
vt 0.040491 0.773024
vt 0.045934 0.767482
vt 0.050029 0.760845
vt 0.052572 0.753446
vt 0.052260 0.523023
vt 0.052260 0.194328
vt 0.325913 0.194328
vt 0.336849 0.195583
vt 0.347237 0.199284
vt 0.356556 0.205246
vt 0.364338 0.213171
vt 0.370193 0.222659
vt 0.373829 0.233237
vt 0.375060 0.244373
vt 0.375060 0.472978
vt 0.373829 0.484115
vt 0.370193 0.494692
vt 0.364338 0.504181
vt 0.356556 0.512105
vt 0.347237 0.518067
vt 0.336849 0.521769
vt 0.325913 0.523023
vt 0.397342 0.776484
vt 0.397342 0.570783
vt 0.433623 0.533840
vt 0.691667 0.533840
vt 0.699740 0.534766
vt 0.707408 0.537498
vt 0.714287 0.541900
vt 0.720032 0.547749
vt 0.724355 0.554754
vt 0.727038 0.562562
vt 0.727948 0.570783
vt 0.727948 0.776484
vt 0.396432 0.562562
vt 0.393749 0.554754
vt 0.389427 0.547749
vt 0.383682 0.541900
vt 0.376803 0.537498
vt 0.369134 0.534766
vt 0.361061 0.533840
vt 0.397342 0.533840
vt 0.022494 0.831704
vt 0.218847 0.831704
vt 0.218847 0.844235
vt 0.022494 0.844235
vt 0.182955 0.941214
vt 0.191054 0.941214
vt 0.191054 0.951015
vt 0.182955 0.951015
vt 0.022494 0.844345
vt 0.056031 0.844235
vt 0.056031 0.856767
vt 0.022494 0.856876
vt 0.089568 0.844345
vt 0.328097 0.844345
vt 0.328097 0.856876
vt 0.089568 0.856876
vt 0.198538 0.941214
vt 0.198538 0.951015
vt 0.395171 0.844345
vt 0.581906 0.844345
vt 0.581906 0.856876
vt 0.395171 0.856876
vt 0.205032 0.941214
vt 0.205032 0.951015
vt 0.881276 0.845455
vt 0.889351 0.845455
vt 0.889351 0.858197
vt 0.881276 0.858197
vt 0.336401 0.844345
vt 0.336401 0.856876
vt 0.871808 0.845455
vt 0.871808 0.858197
vt 0.351079 0.941214
vt 0.526793 0.941214
vt 0.526793 0.951015
vt 0.351079 0.951015
vt 0.345969 0.844345
vt 0.345969 0.856876
vt 0.861422 0.845455
vt 0.861422 0.858197
vt 0.577650 0.858197
vt 0.889351 0.858197
vt 0.889351 0.870728
vt 0.577650 0.870728
vt 0.356324 0.844345
vt 0.356324 0.856876
vt 0.850638 0.845455
vt 0.850638 0.858197
vt 0.366945 0.844345
vt 0.366945 0.856876
vt 0.839998 0.845455
vt 0.839998 0.858197
vt 0.274923 0.794937
vt 0.287386 0.794988
vt 0.287298 0.816255
vt 0.274835 0.816204
vt 0.377299 0.844345
vt 0.377299 0.856876
vt 0.830035 0.845455
vt 0.830035 0.858197
vt 0.301747 0.795047
vt 0.301660 0.816314
vt 0.386868 0.844345
vt 0.386868 0.856876
vt 0.821247 0.845455
vt 0.821247 0.858197
vt 0.317288 0.795112
vt 0.317200 0.816379
vt 0.152572 0.941214
vt 0.159067 0.941214
vt 0.159067 0.951015
vt 0.152572 0.951015
vt 0.333228 0.795177
vt 0.333140 0.816444
vt 0.032755 0.941214
vt 0.032755 0.951015
vt 0.166551 0.941214
vt 0.166551 0.951015
vt 0.348769 0.795241
vt 0.348681 0.816508
vt 0.621602 0.845455
vt 0.621602 0.858197
vt 0.174649 0.941214
vt 0.174649 0.951015
vt 0.363130 0.795300
vt 0.363043 0.816567
vt 0.375593 0.795352
vt 0.375505 0.816619
vt 0.904300 0.141597
vt 0.806050 0.074782
vt 0.805047 0.054407
vt 0.830352 0.053787
vt 0.841483 0.053932
vt 0.852513 0.054911
vt 0.863321 0.056713
vt 0.873788 0.059318
vt 0.883799 0.062697
vt 0.893245 0.066814
vt 0.902023 0.071623
vt 0.910036 0.077072
vt 0.917196 0.083102
vt 0.923425 0.089645
vt 0.928655 0.096630
vt 0.932829 0.103981
vt 0.935900 0.111618
vt 0.937835 0.119456
vt 0.938613 0.127409
vt 0.938897 0.139006
vt 0.704750 0.149769
vt 0.264451 0.160549
vt 0.230152 0.068482
vt 0.817793 0.777978
vt 0.804067 0.217308
vt 0.954589 0.779942
vt 0.803353 0.210012
vt 0.801578 0.202821
vt 0.798760 0.195816
vt 0.794932 0.189072
vt 0.790134 0.182664
vt 0.784420 0.176661
vt 0.777851 0.171130
vt 0.770500 0.166132
vt 0.762448 0.161720
vt 0.753782 0.157943
vt 0.744598 0.154843
vt 0.734995 0.152453
vt 0.725081 0.150800
vt 0.714962 0.149902
vt 0.039330 0.870728
vt 0.969809 0.870728
vt 0.969809 0.885828
vt 0.039330 0.885828
vt 0.752129 0.951015
vt 0.765825 0.951015
vt 0.765825 0.962630
vt 0.752129 0.962630
vt 0.089795 0.973765
vt 0.077361 0.973765
vt 0.077361 0.963110
vt 0.089795 0.963110
vt 0.022494 0.856876
vt 0.577650 0.856876
vt 0.577650 0.870728
vt 0.022494 0.870728
vt 0.621602 0.830980
vt 0.798647 0.830356
vt 0.798647 0.845456
vt 0.621602 0.844832
vt 0.738140 0.951015
vt 0.738140 0.962630
vt 0.065311 0.973765
vt 0.065311 0.963110
vt 0.032755 0.951015
vt 0.619053 0.951015
vt 0.619053 0.962630
vt 0.032755 0.962630
vt 0.724011 0.951015
vt 0.724011 0.962630
vt 0.053777 0.973765
vt 0.053777 0.963110
vt 0.709897 0.951015
vt 0.709897 0.962630
vt 0.042885 0.973765
vt 0.042885 0.963110
vt 0.205140 0.973765
vt 0.196307 0.973765
vt 0.196307 0.963110
vt 0.205140 0.963110
vt 0.695952 0.951015
vt 0.695952 0.962630
vt 0.032755 0.973765
vt 0.032755 0.963110
vt 0.186554 0.973765
vt 0.186554 0.963110
vt 0.682329 0.951015
vt 0.682329 0.962630
vt 0.175989 0.973765
vt 0.175989 0.963110
vt 0.669178 0.951015
vt 0.669178 0.962630
vt 0.164727 0.973765
vt 0.164727 0.963110
vt 0.656642 0.951015
vt 0.656642 0.962630
vt 0.824855 0.951015
vt 0.833864 0.951015
vt 0.833864 0.962630
vt 0.824855 0.962630
vt 0.152892 0.973765
vt 0.152892 0.963110
vt 0.644859 0.951015
vt 0.644859 0.962630
vt 0.814756 0.951015
vt 0.814756 0.962630
vt 0.140613 0.973765
vt 0.140613 0.963110
vt 0.803678 0.951015
vt 0.803678 0.962630
vt 0.128025 0.973765
vt 0.128025 0.963110
vt 0.232234 0.865133
vt 0.232234 0.873546
vt 0.791741 0.951015
vt 0.791741 0.962630
vt 0.115266 0.973765
vt 0.115266 0.963110
vt 0.779077 0.951015
vt 0.779077 0.962630
vt 0.102476 0.973765
vt 0.102476 0.963110
vt 0.979635 0.974245
vt 0.843737 0.973765
vt 0.843737 0.963110
vt 0.979635 0.962630
vn 0.0000 -1.0000 -0.0000
vn 0.0000 -1.0000 -0.0008
vn 0.0000 -1.0000 -0.0009
vn 0.0000 -1.0000 -0.0032
vn 0.0000 1.0000 0.0000
vn 0.0000 1.0000 0.0009
vn 0.0000 1.0000 0.0008
vn 0.0000 1.0000 0.0032
vn -1.0000 0.0000 0.0000
vn -0.9984 0.0000 -0.0561
vn 0.7818 0.0000 0.6235
vn 0.9010 0.0000 0.4339
vn -0.0000 0.0000 1.0000
vn 0.0561 0.0000 0.9984
vn 0.9749 0.0000 0.2225
vn 0.9984 0.0000 0.0561
vn 1.0000 0.0000 0.0000
vn -0.2225 0.0000 0.9749
vn -0.0561 0.0000 0.9984
vn 0.2225 0.0000 0.9749
vn -0.4339 0.0000 0.9010
vn 0.0000 0.0000 -1.0000
vn 0.4339 0.0000 0.9010
vn -0.6235 0.0000 0.7818
vn 0.6235 0.0000 0.7818
vn -0.7818 0.0000 0.6235
vn -0.9010 0.0000 0.4339
vn -0.9749 0.0000 -0.2225
vn -0.9749 0.0000 0.2225
vn -0.9010 0.0000 -0.4339
vn -0.9984 0.0000 0.0561
vn -0.7818 0.0000 -0.6235
vn -0.6235 0.0000 -0.7818
vn -0.4339 0.0000 -0.9010
vn -0.2225 0.0000 -0.9749
vn -0.1120 0.0000 -0.9937
vn 0.0005 1.0000 -0.0014
vn 0.0018 1.0000 -0.0006
vn 0.0016 1.0000 -0.0000
vn 0.0000 1.0000 -0.0012
vn 0.0030 1.0000 -0.0005
vn 0.0031 1.0000 -0.0001
vn 0.0001 1.0000 -0.0025
vn 0.0007 1.0000 -0.0023
vn 0.0024 1.0000 -0.0019
vn -0.7370 0.0000 0.6759
vn -0.6605 0.0000 0.7508
vn 0.9027 0.0000 -0.4303
vn 0.9386 0.0000 -0.3450
vn 0.9998 0.0000 -0.0216
vn 0.2870 0.0000 -0.9579
vn -0.8025 0.0000 0.5967
vn 0.9658 0.0000 -0.2591
vn -0.8575 0.0000 0.5145
vn 0.9849 0.0000 -0.1729
vn -0.9027 0.0000 0.4303
vn 0.9963 0.0000 -0.0865
vn 0.0317 0.0000 -0.9995
vn 0.1262 0.0000 -0.9920
vn -0.9386 0.0000 0.3450
vn 0.2492 0.0000 -0.9684
vn -0.9658 0.0000 0.2591
vn 0.3661 0.0000 -0.9306
vn -0.9849 0.0000 0.1729
vn 0.4745 0.0000 -0.8802
vn -0.9963 0.0000 0.0865
vn -0.1262 0.0000 0.9920
vn -0.0317 0.0000 0.9995
vn 0.5730 0.0000 -0.8196
vn -0.9998 0.0000 0.0216
vn -0.2492 0.0000 0.9684
vn 0.6605 0.0000 -0.7508
vn -0.3661 0.0000 0.9306
vn 0.7370 0.0000 -0.6759
vn -0.4745 0.0000 0.8802
vn 0.8025 0.0000 -0.5967
vn -0.5730 0.0000 0.8196
vn 0.8575 0.0000 -0.5145
vn 0.9990 0.0000 -0.0447
s 1
f 2/1/1 14/2/1 20/3/1 19/4/1 18/5/1 17/6/1 16/7/1 15/8/1 13/9/1 6/10/1 12/11/1 11/12/1 10/13/1 9/14/1 8/15/1 7/16/1 5/17/1 1/18/1
f 3/19/1 4/20/1 32/21/1 38/22/1 37/23/1 36/24/1 35/25/1 34/26/1 33/27/1 31/28/1 24/29/2 21/30/3
f 21/30/3 24/29/2 23/31/4 22/32/4 30/33/4 29/34/4 28/35/4 27/36/4 26/37/4 25/38/4
f 40/39/5 39/40/5 60/41/5 59/42/5 58/43/5 57/44/5 56/45/5 55/46/5 54/47/5 53/48/5 62/49/5 61/50/5 63/51/5 64/52/5 65/53/5 66/54/5 67/55/5 68/56/5
f 41/57/5 44/58/6 43/59/7 70/60/5 69/61/5 71/62/5 72/63/5 73/64/5 74/65/5 75/66/5 76/67/5 42/68/5
f 44/58/6 45/69/8 46/70/8 47/71/8 48/72/8 49/73/8 50/74/8 51/75/8 52/76/8 43/59/7
f 3/77/9 21/78/10 44/79/10 41/80/9
f 18/81/11 19/82/12 66/83/12 65/84/11
f 22/85/13 23/86/13 52/87/13 51/88/13
f 24/89/13 31/90/14 70/91/14 43/92/13
f 19/82/12 20/93/15 67/94/15 66/83/12
f 23/86/13 24/89/13 43/92/13 52/87/13
f 32/95/16 4/96/17 42/97/17 76/98/16
f 20/93/15 14/99/16 68/100/16 67/94/15
f 12/101/18 6/102/19 53/103/19 54/104/18
f 31/90/14 33/105/20 69/106/20 70/91/14
f 11/107/21 12/101/18 54/104/18 55/108/21
f 2/109/22 1/110/22 39/111/22 40/112/22
f 33/105/20 34/113/23 71/114/23 69/106/20
f 10/115/24 11/107/21 55/108/21 56/116/24
f 4/117/22 3/118/22 41/119/22 42/120/22
f 34/113/23 35/121/25 72/122/25 71/114/23
f 9/123/26 10/115/24 56/116/24 57/124/26
f 35/121/25 36/125/11 73/126/11 72/122/25
f 8/127/27 9/123/26 57/124/26 58/128/27
f 21/129/10 25/130/28 45/131/28 44/132/10
f 36/125/11 37/133/12 74/134/12 73/126/11
f 7/135/29 8/127/27 58/128/27 59/136/29
f 25/130/28 26/137/30 46/138/30 45/131/28
f 37/133/12 38/139/15 75/140/15 74/134/12
f 5/141/31 7/135/29 59/136/29 60/142/31
f 26/137/30 27/143/32 47/144/32 46/138/30
f 38/139/15 32/95/16 76/98/16 75/140/15
f 13/145/14 15/146/20 61/147/20 62/148/14
f 27/143/32 28/149/33 48/150/33 47/144/32
f 6/151/19 13/145/14 62/148/14 53/152/19
f 15/146/20 16/153/23 63/154/23 61/147/20
f 28/149/33 29/155/34 49/156/34 48/150/33
f 1/157/9 5/141/31 60/142/31 39/158/9
f 16/153/23 17/159/25 64/160/25 63/154/23
f 29/155/34 30/161/35 50/162/35 49/156/34
f 14/99/16 2/109/17 40/112/17 68/100/16
f 17/159/25 18/81/11 65/84/11 64/160/25
f 30/161/35 22/163/36 51/164/36 50/162/35
f 121/165/37 138/166/38 120/167/39 154/168/5 153/169/5 152/170/5 151/171/5 150/172/5 149/173/5 148/174/5 147/175/5 146/176/5 145/177/5 144/178/5 143/179/5 142/180/5 141/181/5 140/182/5 139/183/5 117/184/40
f 120/167/39 138/166/38 137/185/41 119/186/42 118/187/42
f 115/188/43 122/189/44 121/165/37 117/184/40 116/190/43
f 122/189/44 123/191/45 124/192/45 125/193/45 126/194/45 127/195/45 128/196/45 129/197/45 130/198/45 131/199/45 132/200/45 133/201/45 134/202/45 135/203/45 136/204/45 137/185/41 138/166/38 121/165/37
f 80/205/13 78/206/13 116/207/13 117/208/13
f 92/209/46 93/210/47 145/211/47 146/212/46
f 110/213/48 111/214/49 133/215/49 132/216/48
f 100/217/50 82/218/17 119/219/17 137/220/50
f 82/221/51 81/222/51 118/223/51 119/224/51
f 91/225/52 92/209/46 146/212/46 147/226/52
f 111/214/49 112/227/53 134/228/53 133/215/49
f 81/229/9 77/230/9 120/231/9 118/232/9
f 90/233/54 91/225/52 147/226/52 148/234/54
f 112/227/53 113/235/55 135/236/55 134/228/53
f 89/237/56 90/233/54 148/234/54 149/238/56
f 113/235/55 114/239/57 136/240/57 135/236/55
f 99/241/58 101/242/59 123/243/59 122/244/58
f 88/245/60 89/237/56 149/238/56 150/246/60
f 114/239/57 100/247/50 137/248/50 136/240/57
f 101/242/59 102/249/61 124/250/61 123/243/59
f 87/251/62 88/245/60 150/246/60 151/252/62
f 102/249/61 103/253/63 125/254/63 124/250/61
f 86/255/64 87/251/62 151/252/62 152/256/64
f 103/253/63 104/257/65 126/258/65 125/254/63
f 85/259/66 86/255/64 152/256/64 153/260/66
f 98/261/67 84/262/68 139/263/68 140/264/67
f 104/257/65 105/265/69 127/266/69 126/258/65
f 83/267/70 85/259/66 153/260/66 154/268/70
f 97/269/71 98/261/67 140/264/67 141/270/71
f 105/265/69 106/271/72 128/272/72 127/266/69
f 77/230/9 83/267/70 154/268/70 120/231/9
f 96/273/73 97/269/71 141/270/71 142/274/73
f 106/271/72 107/275/74 129/276/74 128/272/72
f 84/277/68 80/205/13 117/208/13 139/278/68
f 95/279/75 96/273/73 142/274/73 143/280/75
f 107/275/74 108/281/76 130/282/76 129/276/74
f 94/283/77 95/279/75 143/280/75 144/284/77
f 108/281/76 109/285/78 131/286/78 130/282/76
f 78/287/79 79/288/79 115/289/79 116/290/79
f 93/210/47 94/283/77 144/284/77 145/211/47
f 109/285/78 110/213/48 132/216/48 131/286/78
f 79/288/22 99/241/58 122/244/58 115/289/22
