# Blender v3.2.2 OBJ File: 'sitebackground.blend'
# www.blender.org
o Plane.001
v -14.300000 0.000000 19.578650
v 14.300000 0.000000 19.578650
v -14.300000 0.000000 -9.021351
v 14.300000 0.000000 -9.021351
v -0.864245 0.000000 19.578650
v -0.934618 0.000000 -9.021351
v 0.960083 0.000000 19.578650
v 0.960083 0.000000 -9.021351
v -14.300000 0.000000 1.635876
v 14.300000 0.000000 1.564039
v -0.864245 0.000000 1.635876
v 0.962585 0.000000 1.460887
v 14.300000 0.000000 -0.707703
v -0.864245 0.000000 -0.911492
v -14.300000 0.000000 -0.911492
v 7.129944 0.000000 19.578650
v 7.129944 0.000000 -9.021351
v 7.132445 0.000000 1.564039
v 7.129944 0.000000 -0.707703
v 14.300000 0.000000 -2.931035
v -0.934618 0.000000 -2.931035
v 0.960083 0.000000 -2.931035
v -14.300000 0.000000 -2.931035
v 7.129944 0.000000 -2.931035
v 5.399910 0.000000 -9.021351
v 5.332797 0.000000 1.460887
v 5.330296 0.000000 -0.707703
v 5.330296 0.000000 19.578650
v 5.399910 0.000000 -2.931035
vt 0.749299 0.787052
vt 1.000000 0.787052
vt 1.000000 1.000000
vt 0.749299 1.000000
vt 0.000000 0.787052
vt 0.467321 0.787052
vt 0.467321 1.000000
vt 0.000000 1.000000
vt 0.000000 0.000000
vt 0.469782 0.000000
vt 0.469782 0.627370
vt 0.000000 0.627370
vt 0.749299 0.000000
vt 1.000000 0.000000
vt 1.000000 0.629881
vt 0.749386 0.629881
vt 0.469782 0.716438
vt 0.000000 0.716438
vt 1.000000 0.709313
vt 0.749299 0.709313
vt 0.686462 0.633488
vt 0.686374 0.709313
vt 0.686374 0.000000
vt 0.688808 0.787052
vt 0.688808 1.000000
vt 0.533569 0.787052
vt 0.533569 1.000000
vt 0.533569 0.000000
vt 0.533657 0.633488
vn 0.0000 1.0000 0.0000
s off
f 24/1/1 20/2/1 4/3/1 17/4/1
f 23/5/1 21/6/1 6/7/1 3/8/1
f 1/9/1 5/10/1 11/11/1 9/12/1
f 16/13/1 2/14/1 10/15/1 18/16/1
f 9/12/1 11/11/1 14/17/1 15/18/1
f 18/16/1 10/15/1 13/19/1 19/20/1
f 26/21/1 18/16/1 19/20/1 27/22/1
f 28/23/1 16/13/1 18/16/1 26/21/1
f 29/24/1 24/1/1 17/4/1 25/25/1
f 22/26/1 29/24/1 25/25/1 8/27/1
f 7/28/1 28/23/1 26/21/1 12/29/1
