# Blender v3.2.2 OBJ File: 'sitebackground.blend'
# www.blender.org
o Cube.003_Cube.004
v -2.000000 2.271279 -3.000000
v 3.000000 2.271279 -3.000000
v 0.428925 1.947594 -1.817784
v 0.428925 2.271279 -3.000000
v -0.821075 1.947594 -1.817784
v -0.821075 2.106581 -1.817784
v -0.821075 2.271279 -3.000000
v 0.428925 2.106581 -1.817784
v 3.000000 2.106581 -1.817784
v -2.000000 2.106581 -1.817784
v 3.000000 1.947594 -1.817784
v -2.000000 1.947594 -1.817784
vt 0.485785 0.197560
vt 0.235785 0.197560
vt 0.235785 0.000000
vt 0.485785 0.000000
vt 1.000000 0.197560
vt 1.000000 0.000000
vt 0.000000 0.197560
vt 0.000000 0.000000
vt 0.000000 1.000000
vt 0.235785 1.000000
vt 1.000000 1.000000
vt 0.485785 1.000000
vn 0.0000 0.0000 1.0000
vn 0.0000 0.9904 0.1380
s off
f 8/1/1 6/2/1 5/3/1 3/4/1
f 9/5/1 8/1/1 3/4/1 11/6/1
f 10/7/1 12/8/1 5/3/1 6/2/1
f 1/9/2 10/7/2 6/2/2 7/10/2
f 2/11/2 4/12/2 8/1/2 9/5/2
f 4/12/2 7/10/2 6/2/2 8/1/2
