# Blender v3.2.2 OBJ File: 'sitebackground.blend'
# www.blender.org
o Cube.001_Cube.002
v 2.832266 1.810180 -3.159425
v 2.832266 0.167734 -3.159425
v 0.596659 0.167734 -3.159425
v 0.596659 1.810180 -3.159425
v 8.842134 1.842134 -3.197987
v 8.842134 0.157866 -3.197987
v 7.237671 0.157866 -3.197987
v 4.157866 0.157866 -3.197987
v 4.157866 1.842134 -3.197987
v 5.671940 1.842134 -3.197987
v 7.237671 1.842134 -3.197987
v 5.671940 0.157866 -3.197987
v -2.000000 1.938548 -3.121293
v -2.000000 0.683665 -4.878707
v -2.000000 0.683665 -3.121293
v -2.000000 1.938548 -4.878707
v -2.526087 0.683665 -4.878707
v -2.526087 0.683665 -3.121293
v -2.526087 1.408320 -4.878707
v -2.000000 1.938548 -4.878707
v -2.512897 1.526307 -4.878707
v -2.473988 1.638378 -4.878707
v -2.411311 1.738912 -4.878707
v -2.328010 1.822869 -4.878707
v -2.228261 1.886039 -4.878707
v -2.117065 1.925254 -4.878707
v -2.000000 1.938548 -3.121293
v -2.526087 1.408320 -3.121293
v -2.117065 1.925254 -3.121293
v -2.228261 1.886039 -3.121293
v -2.328010 1.822869 -3.121293
v -2.411311 1.738912 -3.121293
v -2.473988 1.638378 -3.121293
v -2.512897 1.526307 -3.121293
vt 0.393068 0.758155
vt 0.569986 0.758155
vt 0.569986 0.866845
vt 0.393068 0.866845
vt 0.384867 0.942892
vt 0.490133 0.942892
vt 0.490133 0.994608
vt 0.384867 0.994608
vt 0.384867 0.760277
vt 0.490133 0.760277
vt 0.490133 0.864723
vt 0.384867 0.864723
vt 0.722925 0.719705
vt 0.722925 0.808515
vt 0.722925 0.808515
vt 0.714640 0.807575
vt 0.706770 0.804799
vt 0.699711 0.800329
vt 0.693815 0.794387
vt 0.689380 0.787272
vt 0.686626 0.779340
vt 0.685693 0.770990
vt 0.685693 0.719705
vt 0.588890 0.719704
vt 0.640176 0.719704
vt 0.640176 0.844081
vt 0.588890 0.844081
vt 0.201489 0.720983
vt 0.201489 0.809794
vt 0.164256 0.809794
vt 0.164256 0.758508
vt 0.165190 0.750158
vt 0.167943 0.742227
vt 0.172379 0.735112
vt 0.178275 0.729170
vt 0.185334 0.724699
vt 0.193204 0.721924
vt 0.201489 0.720983
vn 0.0000 0.0000 1.0000
vn -0.4602 0.0000 0.8878
vn -0.7071 0.0000 0.7071
vn -0.4602 0.0000 -0.8878
vn -0.7071 0.0000 -0.7071
vn 0.0000 0.0000 -1.0000
s off
f 2/1/1 1/2/1 4/3/1 3/4/1
f 12/5/1 10/6/1 9/7/1 8/8/1
f 6/9/1 5/10/1 11/11/1 7/12/1
s 1
f 15/13/1 13/14/1 27/15/1 29/16/1 30/17/1 31/18/1 32/19/1 33/20/1 34/21/1 28/22/2 18/23/3
f 18/24/3 28/25/2 19/26/4 17/27/5
f 16/28/6 14/29/6 17/30/5 19/31/4 21/32/6 22/33/6 23/34/6 24/35/6 25/36/6 26/37/6 20/38/6
