# Blender v3.2.2 OBJ File: 'sitebackground.blend'
# www.blender.org
o Plane.003_Plane.015
v -1.959855 0.068655 -5.574060
v 2.888336 0.068655 -5.574060
v -1.959855 2.215503 -5.574060
v 2.888336 2.215503 -5.574060
v 2.888336 0.068655 -3.024031
v -1.959855 0.068655 -3.024031
v 2.888336 2.215504 -3.024031
vt 0.000000 0.000000
vt 1.000000 0.000000
vt 1.000000 1.000000
vt 0.000000 1.000000
vt 1.000000 0.000000
vt 1.000000 1.000000
vt 0.000000 0.000000
vn 0.0000 0.0000 1.0000
vn -1.0000 0.0000 0.0000
vn 0.0000 1.0000 -0.0000
s off
f 1/1/1 2/2/1 4/3/1 3/4/1
f 4/3/2 2/2/2 5/5/2 7/6/2
f 2/2/3 1/1/3 6/7/3 5/5/3
